<svg xmlns="http://www.w3.org/2000/svg" height="1024" preserveAspectRatio="none" style="display: block;" version="1.1" viewBox="0 0 2048 2048" width="1024">
<path d="M 0 0 L 2048 0 L 2048 2048 L 0 2048 L 0 0 z" fill="rgb(255,255,255)" transform="translate(0,0)"></path>
<path d="M 250.022 690.966 L 293.752 717.299 C 290.685 736.006 295.389 765.827 297.528 785.587 C 300.808 815.631 304.307 845.651 308.025 875.644 L 327.262 1041.15 L 708.191 1041.23 L 822.79 1041.34 C 840.296 1041.31 866.84 1040.41 883.741 1041.33 C 878.954 1044.03 383.025 1042.11 326.995 1042.31 C 327.35 1047.16 327.814 1059.6 329.877 1063.09 C 331.432 1089.06 337.337 1125.29 340.389 1152.38 L 1513.85 1151.66 C 1507.2 1168.63 1500.75 1185.67 1494.52 1202.8 L 1397.72 1202.97 C 1381.51 1224.41 1352.72 1256.11 1334.67 1277.21 L 1192.95 1442.26 C 1236.08 1441.91 1279.25 1442.79 1322.4 1442.54 C 1327.18 1436.28 1332.22 1430.33 1337.44 1424.44 C 1377.93 1378.83 1416.21 1331.41 1455.9 1285.13 C 1462.95 1276.91 1470.05 1268.48 1476.19 1259.56 C 1474.55 1309.99 1481.68 1334.17 1486.92 1382.54 C 1490.89 1421.94 1492.26 1461.56 1491.03 1501.14 C 1454.52 1499.15 1408.41 1500.56 1371.33 1500.55 L 1169.39 1499.95 L 700.703 1498.86 C 597.788 1498.7 491.514 1499.55 388.647 1497.46 C 388.866 1504.42 389.542 1510.85 390.197 1517.75 C 397.059 1589.99 405.427 1662.17 411.864 1734.44 C 425.707 1745.34 440.066 1756.52 452.765 1768.68 C 463.663 1779.11 455.429 1791.1 442.897 1783.72 C 424.573 1772.93 406.678 1760.05 388.984 1748.1 C 385.649 1732.25 382.209 1690.84 380.271 1673.55 L 361.464 1497.47 C 336.029 1496.71 308.31 1497.16 282.714 1497.04 L 156.288 1496.08 C 149.161 1532.28 143.577 1569.06 137.445 1605.48 C 135.351 1617.91 133.048 1643.34 128.182 1654.01 C 121.572 1668.51 108.981 1682.28 99.7287 1695.36 C 93.9961 1703.47 89.1076 1712.58 82.4715 1719.97 C 80.7064 1721.93 78.7412 1723.71 76.108 1724.37 C 72.5782 1725.26 67.2864 1724.02 64.2933 1722.03 C 62.202 1720.64 61.3928 1718.37 61.0545 1716 C 59.8469 1707.54 95.6338 1657.77 102.409 1648 C 90.4846 1641.7 59.9834 1627.94 54.6517 1617.48 C 54.9706 1607.68 80.903 1614.63 87.3172 1615.83 L 243.534 711.319 C 246.511 704.548 246.908 696.098 250.022 690.966 z" fill="rgb(34,34,34)" transform="translate(0,0)"></path>
<path d="M 731.426 1202.86 L 863.408 1202.67 C 860.648 1207.07 857.372 1211.11 854.083 1215.12 C 832.016 1242.03 808.503 1267.72 785.789 1294.07 L 704.874 1387.99 C 689.066 1406.43 672.921 1426.57 656.352 1444.11 C 612.357 1443.96 568.361 1444.04 524.366 1444.37 C 530.603 1436.13 542.844 1423.28 550.105 1414.81 C 569.885 1391.39 589.804 1368.09 609.86 1344.9 L 684.92 1257.29 C 700.302 1239.2 715.553 1220.45 731.426 1202.86 z" fill="rgb(255,255,255)" transform="translate(0,0)"></path>
<path d="M 1064.37 1202.79 L 1193.26 1202.79 C 1188.44 1209.61 1178.72 1220.29 1172.99 1226.89 L 1135.41 1270.14 C 1120.69 1287.16 991.185 1440.62 986.899 1442.81 C 943.863 1443.48 899.83 1443.08 856.698 1443.3 C 863.49 1433.89 874.032 1422.42 881.837 1413.55 L 923.312 1366.36 L 1064.37 1202.79 z" fill="rgb(255,255,255)" transform="translate(0,0)"></path>
<path d="M 273.472 812.79 C 274.756 814.149 311.349 1119.66 315.37 1152.01 L 268.25 1152.07 L 223.97 1152.26 C 239.569 1038.98 256.07 925.814 273.472 812.79 z" fill="rgb(255,255,255)" transform="translate(0,0)"></path>
<path d="M 397.167 1202.44 C 439.044 1200.91 485.016 1202.75 527.737 1201.96 C 493.537 1241.27 458.845 1283.87 425.307 1323.98 C 407.324 1344.64 388.314 1365.87 371.382 1387.28 C 365.532 1342.14 361.782 1295.87 355.746 1251.13 C 368.494 1235.62 383.49 1216.72 397.167 1202.44 z" fill="rgb(255,255,255)" transform="translate(0,0)"></path>
<path d="M 331.6 1275.76 C 334.032 1278.81 346.793 1398.54 349.318 1414.22 C 340.722 1423.81 332.355 1433.61 324.224 1443.6 C 291.972 1442.32 250.053 1443.74 217.112 1443.94 L 196.876 1444.08 C 240.482 1387.61 287.162 1332.02 331.6 1275.76 z" fill="rgb(255,255,255)" transform="translate(0,0)"></path>
<path d="M 1676.63 327.386 C 1681.55 327.015 1686.95 326.577 1691.77 327.506 C 1707.61 330.565 1728.71 348.219 1737.62 361.111 C 1756.34 388.182 1750.03 433.889 1744.31 464.289 C 1753.3 462.487 1773.53 459.548 1780.98 465.327 C 1789.08 471.605 1789.3 481.978 1790.67 491.312 C 1817.18 517.829 1860.12 534.526 1886.93 555.29 C 1897.09 581.283 1901.31 614.276 1906.7 642.094 C 1909.59 657.017 1914.61 678.797 1916.37 693.341 C 1917.43 702.33 1917.72 711.394 1917.23 720.433 C 1914.54 763.462 1891.21 806.556 1899.59 848.693 C 1901.35 857.572 1907.14 868.827 1910.77 877.624 C 1907.96 881.154 1903.64 885.573 1900.5 888.986 C 1904.1 899.975 1909.09 907.397 1897.46 914.493 C 1936.84 1006.51 1905.06 1070.41 1877.06 1157.03 C 1873.46 1168.16 1866.36 1200.43 1868.78 1211.91 C 1873.76 1235.59 1886.46 1259.74 1888.37 1285.29 C 1888.73 1290.43 1891.46 1307.81 1893.35 1311.96 C 1920.04 1370.59 1946.6 1430.63 1957.53 1494.54 C 1966.63 1546.94 1957.8 1602.69 1970.33 1654.48 C 1971.76 1660.39 1977.24 1669.81 1980.3 1675.42 L 1973.13 1680.04 C 1980.28 1698.34 2000.52 1714.59 1979.3 1730.49 C 1980.6 1736.83 1983.26 1753.91 1982.15 1759.8 C 1974.68 1799.55 1909.18 1776.54 1883.77 1778.62 C 1856.8 1780.83 1839.13 1787.29 1812.82 1782.07 C 1804.35 1781.09 1773.96 1773.69 1769.92 1765.01 C 1763.81 1751.9 1774.22 1726.51 1792.53 1726.22 C 1808.12 1725.96 1817.92 1730.21 1830.02 1722.64 C 1838.07 1717.6 1839.85 1708.73 1841.47 1700.51 C 1833.85 1686.46 1832.06 1682.85 1845.39 1672.29 C 1831.31 1660.52 1829.17 1654.03 1838.58 1638.36 C 1834.62 1626.24 1830.1 1603.49 1826.81 1590.24 C 1819.74 1561.24 1811.79 1532.45 1802.99 1503.93 C 1792.42 1470.61 1780.88 1437.61 1768.39 1404.97 C 1758.38 1378.33 1745.17 1344.95 1738.49 1317.53 C 1727.26 1271.44 1724.26 1220.17 1718.82 1173.23 C 1736.16 1151.83 1754.77 1123.25 1771.32 1100.76 C 1779.59 1089.53 1801.9 1058.78 1807.23 1047.68 C 1761.14 1098.02 1718.9 1155.65 1674.38 1207.57 C 1655.93 1229.09 1659.34 1245.12 1633.33 1262.66 C 1643.94 1281.76 1652.58 1281.79 1632.47 1299.55 C 1644.12 1341.4 1640.99 1382.32 1640.38 1425.21 C 1639.8 1458.23 1640.08 1491.26 1641.22 1524.26 C 1642.83 1569.19 1663.46 1617.62 1617.68 1645.03 C 1626.51 1680.86 1637.37 1720.68 1587.41 1720.89 C 1564.63 1723.58 1535.58 1710.82 1514 1712.85 C 1485.61 1715.52 1468.32 1722.77 1438.28 1719.78 C 1427.88 1718.17 1377.53 1708.01 1379.82 1692.39 C 1384.76 1658.89 1404.99 1650.69 1436.07 1656.35 C 1448.99 1658.71 1463.87 1652.82 1473.78 1643.88 L 1474.85 1642.91 C 1469.71 1618.85 1476.3 1614.69 1494.89 1601.78 C 1492.76 1596.78 1490.1 1590.88 1488.96 1585.5 C 1481.94 1562.71 1507.68 1538.71 1509.89 1519.98 C 1515.59 1471.81 1510.64 1415.51 1508.24 1367.55 C 1506.83 1339.28 1495.28 1293.49 1499.17 1268.18 C 1506.53 1220.21 1532.78 1168.9 1551.65 1124.21 C 1577.16 1073.17 1616.48 1027.97 1645.14 979.563 C 1658.37 957.205 1676.15 904.686 1684.38 878.563 C 1680.73 876.715 1679.2 876.306 1676.67 873.251 C 1674.74 866.938 1682.59 858.166 1685.06 850.161 C 1670.15 834.179 1684.54 825.376 1695.01 810.99 C 1690.55 771.54 1679.74 726.219 1666.76 688.372 C 1665.15 683.66 1659.06 677.516 1653.93 676.524 C 1625.94 671.107 1601.66 695.101 1580.27 709.391 C 1566.16 718.912 1554.55 726.21 1540.24 733.609 C 1480.38 764.545 1426.61 761.154 1364.28 740.41 C 1351.54 745.573 1338.97 742.153 1324.68 742.216 C 1317.87 732.741 1313.09 723.191 1307.56 712.936 C 1277.67 728.333 1255.1 745.47 1227.34 763.723 C 1220.57 768.179 1201.52 773.825 1193.1 776.807 C 1178.89 781.945 1164.74 787.27 1150.68 792.782 C 1167.08 777.518 1192.96 755.335 1211.03 742.405 C 1228.26 730.082 1290.24 705.788 1300.15 691.484 C 1300.18 688.864 1300.27 687.358 1300.56 684.754 C 1303.69 680.277 1316.29 672.303 1321.56 668.688 L 1330.57 669.28 C 1342.43 670.175 1385.49 646.257 1394.62 638.039 C 1394.37 635.597 1394.56 636.552 1394 634.349 L 1393.5 632.428 C 1392.55 628.689 1391.12 623.81 1393.15 620.394 C 1395.3 621.5 1393.54 620.624 1395.99 621.686 C 1397.74 622.446 1402.46 619.931 1404.26 619.034 C 1409.03 616.662 1413.74 614.399 1414.92 608.753 C 1415.1 608.221 1415.27 607.689 1415.45 607.158 C 1415.48 606.057 1416.78 604.638 1417.7 604.161 C 1417.7 604.16 1422.51 604.575 1422.51 604.575 C 1426.83 601.405 1431.23 598.928 1435.94 596.611 C 1440.2 600.032 1446.57 607.972 1450.3 608.721 C 1456.84 604.761 1462.78 603.034 1467.89 610.483 C 1466.81 611.649 1466.17 612.192 1464.91 613.072 C 1468.26 619.509 1473.82 632.322 1480.4 634.773 C 1481.83 633.014 1479.52 631.988 1479.19 627.416 C 1482.95 628.147 1482.98 628.943 1486.09 631.873 C 1490.07 635.615 1499.33 630.78 1507.06 629.547 L 1507.66 630.676 C 1501.14 647.167 1446.11 678.146 1427.66 681.881 C 1425.34 678.666 1421.3 671.001 1418.59 669.304 L 1417.86 672.607 C 1413.55 670.265 1410.43 653.806 1403.74 655.742 L 1401.5 660.536 C 1386.23 662.933 1371.63 673.605 1359.45 682.554 C 1361.65 685.271 1364.28 688.03 1366.67 690.63 C 1381.68 694.812 1398.11 693.028 1413.19 694.665 C 1434.46 696.975 1437.54 700.827 1457.03 690.057 C 1496.99 667.975 1526.11 632.356 1561.34 603.976 C 1565.5 600.627 1572.61 599.265 1577.63 597.384 C 1587.88 594.206 1593.37 588.558 1600.27 580.927 C 1598.56 577.488 1597.02 575.324 1597.11 571.524 C 1602.55 565.075 1624.6 569.178 1635.3 562.946 C 1648.81 555.072 1651.14 544.716 1659.97 535.853 C 1671.16 524.618 1700.34 514.194 1715.44 509.166 C 1693.25 508.55 1670.07 510.164 1651.38 525.236 C 1645.87 529.678 1641.06 538.943 1634.23 543.603 C 1626.81 544.902 1621.33 538.497 1621.78 531.444 C 1622.31 523.188 1616.19 522.238 1610.67 516.586 C 1603.31 509.052 1603.97 500.847 1603.88 490.955 C 1597.34 490.984 1589.9 492.873 1585.11 489.127 C 1578.82 475.944 1598.41 449.446 1592.09 439.919 C 1588.19 439.293 1582.25 441.356 1577.99 442.019 C 1553.92 445.754 1536.84 440.871 1517.36 427.676 C 1546.68 419.704 1558.83 410.889 1584.52 395.914 C 1587.24 382.609 1589.61 369.132 1598.3 358.174 C 1613.17 339.436 1654.32 329.937 1676.63 327.386 z" fill="rgb(34,34,34)" transform="translate(0,0)"></path>
<path d="M 218.166 319.107 C 228.475 294.306 240.36 273.766 266.666 262.843 C 283.729 255.648 302.958 255.56 320.087 262.598 C 341.979 271.661 353.049 287.823 361.728 308.879 C 368.656 309.001 369.695 309.101 376.49 311.04 C 380.177 309.811 391.637 297.259 395.529 293.896 C 476.367 224.053 566.778 321.393 527.081 406.935 C 517.372 427.857 500.406 439.208 481.262 450.879 C 495.268 471.365 503.802 485.44 514.769 507.788 C 515.671 492.538 516.491 479.114 515.967 463.805 C 505.901 460.464 496.345 457.349 486.919 452.327 C 491.847 450.186 494.676 448.51 500.087 449.625 C 515.011 452.701 530.049 460.603 543.85 467.043 C 538.947 483.718 533.615 499.779 529.316 516.647 C 502.941 508.837 476.448 501.434 449.844 494.44 L 448.706 497.843 C 445.152 493.746 433.133 492.626 426.922 491.515 L 426.759 489.129 C 411.566 485.931 385.633 477.909 370.23 480.708 C 366.404 481.403 364.724 486.992 363.596 490.383 C 351.136 483.348 302.613 467.853 287.125 462.605 L 144.783 413.773 C 145.383 406.087 145.827 397.11 147.402 389.694 C 139.829 389.016 118.376 380.147 110.164 376.923 C 112.158 362.297 114.436 340.488 117.326 326.323 C 134.361 334.129 187.934 341.382 208.955 344.625 L 210.216 343.238 L 210.007 341.141 C 205.325 337.778 131.452 327.677 117.913 324.158 L 119.389 311.654 C 152.332 313.908 185.258 316.393 218.166 319.107 z" fill="rgb(0,0,0)" transform="translate(0,0)"></path>
<path d="M 119.607 343.18 C 123.428 344.238 129.153 345.624 132.745 346.879 C 136.221 348.225 140.496 349.74 143.831 351.234 C 151.809 365.307 159.05 379.785 165.525 394.61 C 160.633 393.358 151.785 391.325 147.402 389.694 C 142.972 383.871 122.697 375.631 115.278 372.155 L 119.607 343.18 z" fill="rgb(255,255,255)" transform="translate(0,0)"></path>
<path d="M 426.759 489.129 C 434.506 490.667 442.205 492.438 449.844 494.44 L 448.706 497.843 C 445.152 493.746 433.133 492.626 426.922 491.515 L 426.759 489.129 z" fill="rgb(191,190,192)" transform="translate(0,0)"></path>
<path d="M 434.2 297.292 C 446.44 295.957 461.957 300.213 472.093 307.306 C 511.629 334.969 510.65 396.613 470.016 422.807 C 460.892 428.689 453.942 430.917 443.183 432.708 C 411.357 435.613 380.848 408.444 376.918 377.696 C 371.777 337.472 393.889 304.004 434.2 297.292 z" fill="rgb(255,255,255)" transform="translate(0,0)"></path>
<path d="M 430.101 306.115 C 460.091 303.066 483.926 320.443 491.073 349.219 C 495.004 365.401 492.337 382.482 483.66 396.696 C 474.928 411.044 462.57 419.748 446.323 423.825 C 379.444 435.036 355.967 324.929 430.101 306.115 z" fill="rgb(124,124,124)" transform="translate(0,0)"></path>
<path d="M 277.03 282.199 C 286.586 281.211 296.22 283.096 304.698 287.614 C 331.825 302.14 339.193 340.336 324.637 365.873 C 315.569 381.782 306.343 388.066 289.484 393.126 C 228.79 402.632 207.661 296.927 277.03 282.199 z" fill="rgb(255,255,255)" transform="translate(0,0)"></path>
<path d="M 278.036 290.206 C 335.677 287.019 339.821 373.752 286.991 385.829 C 232.743 388.926 221.523 301.185 278.036 290.206 z" fill="rgb(124,124,124)" transform="translate(0,0)"></path>
<path d="M 166.861 360.825 C 179.453 363.954 192.118 367.359 204.684 370.645 C 208.014 375.635 228.914 411.817 230.901 416.46 C 226.373 416.099 197.837 407.137 191.347 405.208 C 184.009 390.659 174.556 376.003 166.861 360.825 z" fill="rgb(255,255,255)" transform="translate(0,0)"></path>
<path d="M 428.909 447.754 C 441.209 450.24 453.392 452.364 465.034 457.066 C 473.228 472.282 479.198 483.051 484.87 499.55 C 473.607 497.081 464.553 494.707 453.496 491.539 C 450.545 486.281 446.346 484.888 444.776 480.717 C 440.762 470.055 431.168 458.781 428.909 447.754 z" fill="rgb(255,255,255)" transform="translate(0,0)"></path>
<path d="M 300.338 406.489 C 311.46 407.975 328.337 413.615 338.746 417.77 C 346.51 430.482 356.083 445.511 361.614 459.159 C 351.651 456.681 333.265 450.829 323.687 447.269 C 315.824 433.722 308.041 420.128 300.338 406.489 z" fill="rgb(255,255,255)" transform="translate(0,0)"></path>
<path d="M 235.249 386.913 C 249.625 392.321 262.017 396.831 276.818 400.897 C 284.06 414.103 292.047 422.318 296.862 437.525 C 291.561 437.115 264.67 428.597 258.457 426.715 C 251.976 417.685 239.964 397.053 235.249 386.913 z" fill="rgb(255,255,255)" transform="translate(0,0)"></path>
<path d="M 365.43 426.219 C 371.969 427.897 378.463 429.743 384.907 431.757 C 405.408 438.251 413.685 456.909 423.298 475.568 C 414.451 474.384 395.366 470.491 387.004 467.726 C 380.368 454.574 370.735 439.783 365.43 426.219 z" fill="rgb(255,255,255)" transform="translate(0,0)"></path>
<path d="M 352.725 381.876 C 355.752 382.267 356.416 381.756 357.929 383.479 C 354.745 385.954 325.937 400.987 320.066 404.201 C 318.014 404.988 318.832 404.781 316.526 404.659 C 319.632 399.628 345.677 385.621 352.725 381.876 z" fill="rgb(255,255,255)" transform="translate(0,0)"></path>
<path d="M 142.512 420.413 L 280.336 467.501 C 306.175 476.438 336.415 486.077 361.6 496.053 C 351.05 570.263 344.058 646.163 336.217 720.771 L 335.288 732.987 L 217.689 660.018 C 193.461 645.124 168.981 630.4 145.219 614.814 C 134.579 607.834 127.593 592.941 126.618 580.519 C 124.962 559.43 128.534 537.208 130.894 516.198 C 134.394 484.225 138.267 452.295 142.512 420.413 z" fill="rgb(0,0,0)" transform="translate(0,0)"></path>
<path d="M 153.085 450.789 C 165.119 454.331 181.964 458.743 193.125 463.45 C 193.219 474.806 190.426 493.905 188.312 505.124 C 177.378 501.45 157.309 494.895 147.639 489.873 C 148.504 478.289 151.117 462.234 153.085 450.789 z" fill="rgb(255,255,255)" transform="translate(0,0)"></path>
<path d="M 883.741 1041.33 L 1282.65 1041.46 C 1382.74 1041.24 1489.11 1039.75 1588.93 1042.02 C 1584.17 1048.48 1578.38 1056.81 1573.38 1062.88 L 1181.42 1063.21 L 329.877 1063.09 C 327.814 1059.6 327.35 1047.16 326.995 1042.31 C 383.025 1042.11 878.954 1044.03 883.741 1041.33 z" fill="rgb(0,0,0)" transform="translate(0,0)"></path>
<path d="M 522.814 818.115 L 581.142 818.272 C 604.338 879.923 624.218 949.315 648.562 1009.67 C 630.274 1010.37 609.332 1009.91 590.846 1009.94 C 588.329 998.448 584.655 986.758 581.329 975.439 C 574.857 973.686 532.597 974.982 522.948 975.04 L 512.459 1009.51 C 496.754 1010.22 472.798 1010.15 457.197 1009.34 C 475.203 960.735 489.918 910.071 507.739 861.311 C 512.83 847.379 518.853 832.318 522.814 818.115 z" fill="rgb(0,0,0)" transform="translate(0,0)"></path>
<path d="M 550.985 868.541 C 553.747 871.797 568.317 926.559 570.662 934.913 L 551.5 934.973 L 531.983 934.946 C 535.912 916.816 545.577 887.134 550.985 868.541 z" fill="rgb(255,255,255)" transform="translate(0,0)"></path>
<path d="M 658.277 818.354 C 678.296 817.85 698.989 818.105 719.06 818.106 C 727.614 835.605 740.07 855.464 749.492 874.088 C 759.176 855.424 769.209 837.035 778.446 818.134 C 799.152 817.93 820.61 818.287 841.371 818.392 L 786.879 910.984 C 803.152 941.167 828.512 979.106 846.388 1009.42 L 835.681 1009.88 C 818.149 1010.01 800.615 1009.93 783.085 1009.62 L 748.976 947.313 C 737.902 968.456 727.498 988.62 715.878 1009.55 C 696.427 1010.55 673.542 1010 653.839 1010 C 671.228 980.354 695.429 939.89 714.584 912.343 C 697.574 888.357 683.615 861.756 668.163 836.725 C 664.829 831.325 660.253 824.168 658.277 818.354 z" fill="rgb(0,0,0)" transform="translate(0,0)"></path>
<path d="M 1253.27 838.839 C 1319.63 838.108 1371.38 830.937 1372.8 919.746 C 1373.21 945.053 1370.8 969.56 1353.24 989.447 C 1327.03 1015.49 1288.5 1010.03 1253.3 1009.94 C 1252.93 952.907 1252.92 895.872 1253.27 838.839 z" fill="rgb(0,0,0)" transform="translate(0,0)"></path>
<path d="M 1272.35 855.997 C 1287.97 855.918 1320.23 853.992 1332.28 863.741 C 1361.31 887.228 1357.7 951.705 1338.02 979.024 C 1320.57 997.184 1295.18 993.509 1272.1 993.176 L 1272.35 855.997 z" fill="rgb(255,255,255)" transform="translate(0,0)"></path>
<path d="M 377.144 482.071 C 391.93 483.97 412.016 488.408 426.922 491.515 C 433.133 492.626 445.152 493.746 448.706 497.843 C 446.315 510.23 444.663 527.142 443.08 539.984 C 435.946 540.662 432.078 541.214 425.4 544.008 C 410.483 550.303 398.725 562.333 392.773 577.389 C 385.622 595.224 386.883 616.65 396.546 633.244 C 405.202 648.108 416.209 653.65 431.333 659.505 L 422.559 721.244 C 396.264 727.393 369.596 732.809 343.156 738.92 C 348.421 686.695 354.496 634.554 361.377 582.517 C 364.603 556.204 368.157 503.228 377.144 482.071 z" fill="rgb(0,0,0)" transform="translate(0,0)"></path>
<path d="M 1066.91 838.273 C 1074.62 838.181 1082.61 838.365 1090.34 838.439 L 1099.11 948.964 C 1100.51 967.508 1101.49 992.02 1103.82 1009.95 L 1085.1 1009.74 C 1081.41 976.035 1079.5 941.006 1076.81 907.105 C 1075.82 896.693 1074.65 886.299 1073.29 875.928 C 1065.33 909.276 1053.11 941.971 1043.2 974.798 C 1041.11 981.721 1038.88 988.892 1035.81 995.436 C 1030.18 996.034 1023.74 995.758 1018.01 995.698 C 1004.81 959.275 990.941 913.314 979.234 876.003 C 979.023 918.363 975.247 968.003 970.851 1010.22 C 965.354 1010.51 959.493 1010.45 953.962 1010.49 C 954.983 975.702 958.32 938.549 960.19 903.518 C 961.066 887.119 962.428 852.869 964.958 838.456 C 971.666 838.287 978.594 838.478 985.323 838.577 L 1027.89 971.803 C 1030.06 956.347 1036.4 938.43 1040.94 923.196 C 1049.41 894.832 1058.07 866.523 1066.91 838.273 z" fill="rgb(0,0,0)" transform="translate(0,0)"></path>
<path d="M 1498.73 838.951 L 1519.51 839.011 C 1522.19 848.794 1525.78 859.154 1528.89 868.908 C 1543.77 915.645 1557.63 962.891 1574.4 1008.98 L 1554.81 1009.07 C 1550.53 994.268 1544.13 976.711 1539.16 961.878 L 1517.91 961.908 L 1479.54 961.92 C 1473.96 976.074 1468.44 994.671 1463.47 1009.5 C 1457.65 1009.93 1450.06 1009.87 1444.08 1009.97 C 1450.92 986.234 1460.51 960.484 1467.93 936.539 C 1478 904.05 1488.01 871.191 1498.73 838.951 z" fill="rgb(0,0,0)" transform="translate(0,0)"></path>
<path d="M 1508.42 860.753 C 1509.13 861.523 1532.09 937.595 1534.33 945.572 C 1526.25 945.771 1517.81 945.7 1509.7 945.753 L 1484.32 945.502 C 1489.87 920.323 1501.67 887.847 1508.42 860.753 z" fill="rgb(255,255,255)" transform="translate(0,0)"></path>
<path d="M 437.477 548.201 C 448.729 546.841 488.031 552.545 501.478 554.262 C 475.379 577.97 463.674 606.382 471.831 641.804 C 474.797 654.682 479.7 662.149 485.29 673.67 C 482.883 674.371 481.296 673.152 478.339 672.1 C 449.633 660.499 410.924 652.523 399.465 620.891 C 394.531 606.92 395.311 591.568 401.633 578.169 C 409.382 561.872 421.173 553.885 437.477 548.201 z" fill="rgb(0,0,0)" transform="translate(0,0)"></path>
<path d="M 546.205 533.842 C 548.002 534.282 547.199 533.798 548.437 535.553 C 548.425 539.825 541.686 583.349 540.387 590.99 C 534.467 625.789 531.438 667.227 524.563 701.117 C 514.091 694.698 508.322 690.561 499.506 682.043 C 455.985 625.049 482.744 559.408 546.205 533.842 z" fill="rgb(0,0,0)" transform="translate(0,0)"></path>
<path d="M 1132.18 838.669 C 1161.04 837.654 1195.68 838.689 1224.78 838.909 L 1224.73 855.812 C 1201.79 856.62 1175.14 856.041 1151.92 856.09 C 1151.62 874.548 1151.95 893.814 1152 912.333 C 1174.12 912.313 1196.24 912.464 1218.35 912.784 L 1218.39 929.097 L 1151.98 929.131 L 1151.94 946.5 L 1151.87 992.68 L 1226.59 992.732 C 1226.6 998.266 1226.44 1004.02 1226.36 1009.57 C 1197.57 1010.8 1161.8 1009.8 1132.48 1009.8 C 1133.31 993.325 1132.43 968.156 1132.38 951.116 L 1132.18 838.669 z" fill="rgb(0,0,0)" transform="translate(0,0)"></path>
<path d="M 1627.73 697.632 C 1630.51 698.565 1656.42 713.584 1660.3 715.783 C 1669.01 744.513 1675.09 773.976 1678.46 803.807 C 1665.43 796.637 1652.44 789.396 1639.48 782.084 C 1615.08 767.507 1590.36 753.453 1565.35 739.933 C 1592.07 724.286 1602.85 717.021 1627.73 697.632 z" fill="rgb(34,34,34)" transform="translate(0,0)"></path>
<path d="M 1404.04 839.038 L 1423.03 839.048 L 1423.31 1009.77 C 1417.06 1009.89 1410.31 1009.7 1404.02 1009.62 L 1404.04 839.038 z" fill="rgb(0,0,0)" transform="translate(0,0)"></path>
<path d="M 196.226 658.099 C 210.039 665.152 235.896 682.212 250.022 690.966 C 246.908 696.098 246.511 704.548 243.534 711.319 C 222.715 703.387 205.906 697.172 195.269 676.614 L 196.226 658.099 z" fill="rgb(0,0,0)" transform="translate(0,0)"></path>
<metadata><recraft-signature>{"signed_by": "recraft", "signature_b64": "/IKCB9p3B62CsCUSToQ2FNgvLLbarMOQsH3vE3u250Ob+zo78MXsyOxexjyRCv2cniJG9sntG0fI/ui8+zyJBA==", "signing_algo": "Ed25519", "generation_timestamp": 1774384650, "identifier": "b8da936e-74f2-4a2b-916e-039cafd18673"}</recraft-signature></metadata></svg>