<svg xmlns="http://www.w3.org/2000/svg" height="1024" preserveAspectRatio="none" style="display: block;" version="1.1" viewBox="0 0 2048 2048" width="1024">
<path d="M 0 0 L 2048 0 L 2048 2048 L 0 2048 L 0 0 z" fill="rgb(51,51,51)" transform="translate(0,0)"></path>
<path d="M 541.26 535.434 C 581.438 540.445 596.944 549.15 606.92 590.618 C 607.53 593.154 627.79 598.901 631.41 607.903 C 628.269 618.876 598.972 610.973 590.301 609.372 C 589.788 616.407 588.736 623.08 587.718 630.052 C 612.498 630.065 606.946 635.355 625.172 638.789 C 642.973 642.143 655.5 642.569 674.759 647.778 C 690.745 637.81 682.696 654.768 699.146 647.944 C 708.612 644.018 708.605 651.932 709.475 658.624 C 723.718 661.982 773.721 668.834 781.847 673.639 C 784.596 678.124 784.193 682.161 780.156 685.756 C 770.793 687.285 723.569 678.107 709.921 676.34 L 702.427 685.691 L 691.382 683.805 C 676.834 693.248 675.058 707.457 664.596 720.731 C 654.665 733.333 636.02 742.931 622.606 729.029 C 613.551 719.644 606.929 712.124 606.337 698.393 C 604.974 696.397 605.823 696.759 603.475 695.865 C 591.524 691.315 589.878 707.04 588.351 714.668 C 590.773 718.206 593.311 721.846 594.315 726.116 C 598.673 744.657 592.65 785.711 570.938 791.192 C 558.556 794.318 540.109 778.174 529.393 771.571 C 528.467 776.862 528.045 781.974 527.541 787.307 C 537.714 799.694 540.357 802.862 543.01 818.686 C 540.54 824.422 535.94 832.136 532.78 837.787 C 538.411 839.9 554.262 845.558 558.808 849.085 C 580.278 866.481 600.375 889.979 619.615 909.778 C 636.809 927.473 665.635 947.893 657.459 975.449 C 656.356 979.169 652.175 990.981 652.795 993.497 C 664.531 992.712 670.668 1000.96 667.628 1012.02 C 665.601 1019.39 659.319 1021.64 653.033 1024.77 C 659.919 1066.74 665.927 1113.4 718.658 1118.03 C 740.938 1119.99 754.439 1125.73 745.408 1150.97 C 730.453 1155.05 715.031 1157.19 699.527 1157.31 C 692.401 1157.34 680.898 1156.43 674.253 1156.91 C 662.338 1157.75 639.046 1163.05 628.081 1158.34 C 614.6 1152.55 624.996 1107.49 623.775 1094.99 C 622.628 1083.25 618.948 1074.34 614.948 1063.81 C 611.15 1053.37 607.408 1042.46 602.862 1032.36 C 583.05 1029.28 591.402 1015.89 593.502 1003.73 C 590.745 996.836 573.042 990.804 564.009 982.707 C 546.632 967.13 538.536 956.327 524.576 938.161 C 528.219 951.969 534.172 962.108 538.834 975.439 C 537.42 981.217 535.35 986.502 534.023 992.38 C 531.259 1004.63 533.664 1015.51 525.66 1026.1 C 516.891 1037.71 492.977 1047.08 479.079 1048.9 C 468.506 1064.13 466.042 1072.85 449.355 1059.37 C 436.224 1070.12 419.11 1083.54 410.944 1098.12 C 416.529 1119.42 423.276 1119.42 444.925 1119.8 C 462.348 1120.1 473.616 1145.52 460.888 1155.35 C 453.016 1161.43 421.42 1155.23 410.505 1156.57 C 389.57 1156.29 369.616 1156.8 349.243 1153.52 C 348.743 1134.42 348.799 1120.81 360.424 1103.73 C 363.308 1099.49 370.386 1093.62 374.275 1088.72 C 386.16 1073.73 398.302 1054.77 403.228 1036.04 C 403.537 1034.86 402.04 1026.8 401.867 1024.18 C 404.004 1018.49 407.751 1016.84 413.064 1013.96 C 418.89 1015.04 426.318 1017.56 432.131 1019.35 C 426.303 977.06 460.478 993.947 464.794 983.886 C 463.691 973.594 452.916 971.326 448.491 959.385 C 441.848 941.456 442.928 924.814 435.056 907.113 C 418.995 899.989 418.254 900.785 408.022 885.171 C 406.862 892.607 406.28 898.7 398.406 901.688 C 394.921 902.997 391.041 902.733 387.766 900.964 C 376.038 894.552 381.833 883.5 386.939 875.386 L 385.913 873.723 C 380.793 865.502 377.74 856.349 374.994 847.108 C 370.523 832.061 357.162 805.057 385.346 806.773 C 389.898 809.875 388.221 825.206 392.152 835.734 L 392.651 837.033 C 388.805 787.099 417.695 702.514 441.322 656.05 C 445.565 647.707 480.975 624.895 490.019 617.951 C 491.122 617.105 498.279 615.843 500.325 615.505 C 503.836 598.279 503.184 598.563 486.832 592.612 C 496.523 560.155 504.487 541.772 541.26 535.434 z" fill="rgb(254,254,254)" transform="translate(0,0)"></path>
<path d="M 504.104 638.544 C 514.097 639.33 534.942 660.463 547.759 662.499 C 554.036 663.496 557.615 663.472 563.909 663.624 C 562.408 674.018 558.4 688.939 555.055 698.81 C 559.83 705.299 560.561 707.314 562.735 714.79 C 561.774 715.776 558.768 718.311 557.419 717.526 C 547.77 711.908 538.81 695.598 532.835 686.482 C 533.559 684.432 536.174 677.145 536.017 675.348 C 534.488 657.853 511.717 658.238 504.104 638.544 z" fill="rgb(51,51,51)" transform="translate(0,0)"></path>
<path d="M 614.853 670.841 C 622.877 672.087 642.937 671.771 647.493 677.208 C 647.591 681.065 647.058 680.629 645.007 684.585 C 636.874 688.772 623.654 683.78 617.548 677.833 C 614.473 674.838 615.138 674.759 614.853 670.841 z" fill="rgb(51,51,51)" transform="translate(0,0)"></path>
<path d="M 1118.02 786.736 C 1112.6 771.805 1059.77 706.944 1047.71 688.839 C 1042.87 681.573 1032.45 670.724 1029.58 661.443 C 1028.72 658.676 1028.5 654.274 1029.88 651.67 C 1037.01 650.813 1049.93 651.426 1057.5 651.457 C 1074.91 651.428 1092.31 651.487 1109.71 651.634 C 1116.94 660.038 1126.49 675.355 1132.52 684.695 C 1141.85 699.301 1151.52 713.687 1161.53 727.841 C 1178.7 702.265 1194.37 676.32 1212.4 651.193 L 1258.9 651.123 C 1268.01 651.113 1281.52 650.622 1290.08 652.02 C 1291.39 652.939 1291.87 652.802 1292.11 654.568 C 1293.98 668.244 1227.3 751.427 1214.61 768.459 C 1210.54 773.995 1207.94 778.073 1204.38 783.966 C 1208.17 793.393 1238.39 830.31 1246.72 841.216 C 1258.05 856.287 1269.16 871.521 1280.05 886.913 C 1285.43 894.438 1300.26 911.2 1295.97 920.2 C 1289.09 923.526 1229.75 922.124 1218.36 922.109 C 1202.1 901.459 1175.23 860.671 1160.46 838.017 C 1149.75 856.102 1136.86 874.946 1125.44 892.638 C 1120.86 899.735 1110.01 916.332 1104.42 921.932 C 1060.23 923.383 1003.51 922.438 958.958 922.078 C 948.975 908.556 942.324 891.858 932.372 877.168 C 897.766 876.534 861.378 877.115 826.556 876.92 C 818.841 890.871 812.361 908.557 803.946 922.06 C 784.755 922.194 765.517 922.268 746.324 922.249 C 741.187 922.244 731.521 922.909 728.805 918.327 C 729.14 912.495 752.759 861.485 756.376 853.472 L 811.584 732.222 C 818.642 716.811 825.561 701.338 832.34 685.802 C 835.66 678.208 844.271 657.661 848.782 651.219 C 864.196 651.194 885.102 650.899 900.195 651.977 C 917.287 680.004 930.052 709.768 944.917 738.641 C 963.537 774.809 981.923 811.05 1000.33 847.265 C 1006.71 859.804 1023.46 895.254 1031.43 903.706 C 1060.07 866.59 1089.5 824.783 1118.02 786.736 z" fill="rgb(254,254,254)" transform="translate(0,0)"></path>
<path d="M 878.32 750.695 C 880.589 753.232 886.393 773.236 888.537 778.511 C 895.05 794.533 902.464 808.398 910.431 823.691 L 882.476 823.98 L 847.782 823.793 C 861.581 794.18 867.698 782.486 878.32 750.695 z" fill="rgb(51,51,51)" transform="translate(0,0)"></path>
<path d="M 142.306 855.407 C 150.646 858.941 154.909 859.633 163.639 860.573 C 165.837 886.296 175.191 933.003 179.824 959.816 L 210.243 1136.14 L 298.003 1646 L 325.391 1807.18 C 328.74 1826.47 338.406 1872.84 339.13 1889.72 L 1511.5 1692.79 L 1805.11 1642.81 L 1898.57 1626.89 C 1910.58 1624.91 1937.89 1621.46 1948.31 1618.54 C 1948.27 1613.77 1945.57 1600.26 1944.65 1595.01 L 1935.62 1543.74 C 1924.37 1477.37 1913.29 1410.09 1901.21 1343.9 C 1907.16 1341.11 1914.5 1338.81 1920.82 1336.64 C 1921.13 1343.55 1922.32 1348.65 1923.7 1355.41 C 1928.41 1379.57 1971.24 1630.85 1969.86 1633.54 C 1956.27 1637.61 1926.87 1641.66 1911.9 1644.17 L 1819.24 1660.29 L 1465.74 1720.63 L 323.393 1913.33 C 320.209 1901.29 316.995 1879 314.737 1865.77 C 309.806 1837.94 305.102 1810.07 300.625 1782.16 L 260.781 1547.13 L 187.112 1119.19 L 161.022 970.301 C 154.471 933.2 146.945 892.724 142.306 855.407 z" fill="rgb(254,254,254)" transform="translate(0,0)"></path>
<path d="M 1712.57 138.334 C 1715 137.833 1714.88 138.004 1717.43 138.083 C 1720.41 141.189 1740.23 262.004 1743.05 277.912 L 1828.46 772.604 L 1856.92 935.459 L 1864.68 980.552 C 1865.8 987.091 1867.08 994.148 1868.08 1000.69 C 1868.7 1004.78 1854.94 1018.47 1850.75 1018.14 C 1848.92 1014.21 1847.43 1000.31 1846.27 994.713 C 1838.89 959.094 1834.36 922.524 1827.96 886.883 L 1735.21 354.028 C 1728.68 316.305 1721.58 278.299 1715.21 240.545 C 1713.08 227.878 1704.95 170.744 1701.24 161.16 C 1693.41 159.743 1673.95 164.833 1664.66 166.3 L 1520.31 190.518 L 1005.33 278.737 L 842.377 306.883 C 820.733 310.624 799.064 314.221 777.371 317.673 C 767.868 319.21 754.006 321.955 744.788 322.922 C 723.558 328.222 682.135 333.654 659.38 337.53 C 603.534 347.531 547.599 357.031 491.582 366.03 L 85.9617 434.787 C 89.9838 447.962 95.1932 478.072 98.3615 493.616 C 106.314 532.629 115.258 573.025 121.538 612.179 C 115.348 616.173 110.34 620.14 104.523 624.672 C 100.324 608.794 95.632 580.028 92.0834 562.838 L 63.1731 418.521 C 111.093 411.99 162.942 402.612 210.906 394.493 L 516.868 341.902 L 1712.57 138.334 z" fill="rgb(254,254,254)" transform="translate(0,0)"></path>
<path d="M 252.928 841.168 C 255.092 843.725 405.246 1713.98 415.546 1783.7 C 442.436 1777.21 486.454 1771.38 514.718 1766.73 L 691.628 1736.86 L 1512.19 1597.17 L 1738.23 1559.78 C 1769.09 1554.67 1810.34 1549.68 1840.06 1542.73 C 1839.15 1529.49 1835.67 1508.97 1833.64 1495.32 C 1828.98 1464.12 1823.96 1432.98 1818.59 1401.91 C 1816.92 1392.27 1807.31 1338.1 1808.4 1332.43 C 1813.97 1333.16 1822.76 1336.83 1828.32 1338.91 C 1830.46 1348.87 1831.83 1357.23 1833.32 1367.24 C 1844.38 1431.08 1854.68 1495.05 1864.21 1559.14 C 1829.45 1565.16 1794.63 1570.9 1759.78 1576.34 L 1491.94 1620.34 L 398.386 1806.37 C 394.372 1788.15 391.438 1763.54 388.13 1744.48 L 358.914 1570.58 L 275.38 1087.16 C 266.124 1030.69 256.572 974.272 246.725 917.906 L 239.572 875.694 C 238.407 868.739 236.861 857.179 234.689 850.883 C 242.764 847.204 245.428 846.04 252.928 841.168 z" fill="rgb(254,254,254)" transform="translate(0,0)"></path>
<path d="M 1637.72 245.221 C 1640.52 245.297 1643.43 247.061 1643.9 250.009 C 1646.22 264.853 1648.64 279.663 1651.18 294.477 L 1670.7 404.93 L 1748.26 852.644 C 1755.05 893.568 1762.17 934.437 1769.62 975.244 C 1771.98 988.848 1778.88 1024 1779.16 1035.81 L 1762.2 1055.62 C 1759.9 1032.31 1750.64 987.664 1746.55 963.81 L 1709.69 753.021 L 1653.45 428.141 C 1647.37 392.428 1641.03 356.76 1634.43 321.138 C 1631.5 304.465 1628.59 283.574 1625.1 267.526 C 1587.08 274.681 1549.91 280.439 1511.83 286.893 L 1249.99 330.789 C 1151.61 348.28 1053.1 365.072 954.474 381.162 C 930.573 384.985 905.513 390.001 881.763 393.361 C 878.866 394.445 847.416 399.702 842.489 400.545 L 742.737 417.257 L 404.006 475.506 L 280.952 496.523 C 269.951 498.388 201.769 508.635 195.67 513.164 C 195.797 520.937 198.708 531.326 200.289 539.218 C 203.928 557.377 208.705 575.421 211.123 593.805 C 204.521 593.854 197.242 594.732 190.601 595.369 C 189.099 585.927 186.299 574.827 184.384 565.272 C 179.8 541.67 174.913 518.127 169.724 494.65 C 273.468 477.987 377.069 460.444 480.515 442.023 L 1023.99 349.136 L 1423.62 281.128 L 1549.55 259.884 C 1576.09 255.626 1612.04 250.946 1637.72 245.221 z" fill="rgb(254,254,254)" transform="translate(0,0)"></path>
<path d="M 989.528 1233.31 C 1013.46 1229.75 1039.11 1235.77 1062.01 1235.81 C 1096.21 1234.71 1130.27 1244.07 1151 1274.18 C 1179.62 1315.75 1170.93 1370.45 1130.44 1399.4 C 1096.15 1421.74 1060.19 1422.09 1020.7 1421.63 C 1008.08 1421.48 993.283 1422.23 980.921 1420.86 C 974.423 1402.94 980.225 1370.87 980.69 1352.1 C 981.388 1323.95 981.748 1296.05 978.273 1268.05 C 977.751 1263.85 977.997 1239.8 979.213 1236.08 C 982.488 1233.84 985.479 1233.87 989.528 1233.31 z" fill="rgb(254,254,254)" transform="translate(0,0)"></path>
<path d="M 1035.85 1280.05 C 1068.3 1279.49 1110.91 1282.38 1111.67 1326.07 C 1111.92 1340.79 1107.46 1348.63 1097.6 1359.02 C 1079.48 1375.2 1058.55 1372.73 1035.96 1372.91 L 1035.85 1280.05 z" fill="rgb(51,51,51)" transform="translate(0,0)"></path>
<path d="M 643.873 1234.29 C 652.995 1233.86 681.082 1235.28 688.897 1239.38 C 693.306 1245.77 686.016 1324.4 688.229 1337.9 C 688.998 1342.59 685.184 1362.34 685.97 1368.98 C 688.28 1388.48 690.57 1403.36 689.857 1423.05 C 680.933 1423.46 642.086 1424.25 635.517 1420.81 C 631.069 1412.98 631.777 1402.94 632.467 1394.23 C 634.242 1371.83 634.585 1348.66 632.907 1326.25 C 615.02 1350.73 597.453 1377.4 580.157 1402.37 C 578.174 1405.23 573.672 1406.08 570.299 1406.13 C 564.803 1400.88 517.174 1335.42 512.758 1327.92 C 512.813 1335.33 512.719 1342.83 512.688 1350.25 C 512.102 1373.47 517.997 1397.11 514.628 1417.83 C 512.191 1419.76 508.526 1422.13 505.888 1423.96 C 498.995 1424.07 458.823 1426.57 457.582 1419.8 C 455.244 1407.04 460.195 1387.52 460.913 1374.17 C 461.43 1364.54 458.149 1354.85 458.791 1345.13 C 459.484 1316.08 461.643 1288.46 458.385 1259.44 C 457.84 1254.58 465.622 1240.3 468.294 1235.03 C 479.637 1234.97 491.554 1235.12 502.831 1234.42 C 517.106 1243.33 523.333 1254.42 533.103 1267.58 L 573.793 1323.32 C 593.597 1294.94 616.308 1264.24 637.819 1236.94 C 639.25 1235.12 641.684 1234.68 643.873 1234.29 z" fill="rgb(254,254,254)" transform="translate(0,0)"></path>
<path d="M 1859.59 1083.2 C 1910.55 1077.09 1956.74 1113.61 1962.53 1164.6 C 1968.33 1215.6 1931.51 1261.56 1880.48 1267.03 C 1829.91 1272.45 1784.45 1236.03 1778.7 1185.49 C 1772.96 1134.96 1809.09 1089.26 1859.59 1083.2 z" fill="rgb(254,254,254)" transform="translate(0,0)"></path>
<path d="M 1860.82 1091.22 C 1891 1087.72 1920.73 1100.7 1938.67 1125.21 C 1956.62 1149.72 1960.01 1181.98 1947.55 1209.69 C 1935.1 1237.39 1908.71 1256.27 1878.47 1259.11 C 1832.41 1263.45 1791.45 1229.9 1786.61 1183.9 C 1781.78 1137.89 1814.87 1096.56 1860.82 1091.22 z" fill="rgb(118,27,26)" transform="translate(0,0)"></path>
<path d="M 1425.23 1231.28 C 1437.57 1232.13 1454.38 1232.59 1466.61 1231.2 C 1472.8 1239.71 1480.62 1257.07 1485.44 1267.17 L 1510.27 1318.93 C 1524.33 1347.8 1539.19 1376.43 1553.74 1405.06 C 1554.92 1407.37 1555.17 1408.87 1555.5 1411.16 C 1555.9 1413.21 1554.22 1418.04 1552.34 1419.15 C 1544.9 1423.56 1534.17 1422.15 1525.65 1422.21 C 1517.89 1422.26 1509.89 1422 1502.08 1421.88 C 1491.24 1414.78 1488.05 1403.77 1482.64 1391.87 C 1476.48 1392.14 1470.32 1392.34 1464.16 1392.47 C 1444 1392.41 1423.06 1392.07 1402.98 1392.74 C 1396.85 1406.4 1395.61 1411.8 1385.13 1423.02 L 1357.08 1423.34 C 1350.16 1423.39 1337.43 1424.51 1332.76 1419.92 C 1330.12 1410.92 1341.45 1392.55 1345.8 1383.92 C 1352.02 1371.56 1358.12 1359.14 1364.11 1346.67 C 1376.63 1321.02 1389.31 1295.44 1402.16 1269.95 C 1407.59 1259.08 1412.68 1247.85 1418.23 1237.05 C 1419.81 1233.98 1422.23 1232.71 1425.23 1231.28 z" fill="rgb(254,254,254)" transform="translate(0,0)"></path>
<path d="M 1442.39 1301.34 C 1445.13 1303.09 1461.99 1343.5 1464.43 1349.27 C 1456.23 1348.32 1451.21 1348.13 1442.92 1348.09 C 1434.1 1348.92 1428.61 1349.12 1419.75 1348.99 C 1426.49 1338.5 1436.69 1313.51 1442.39 1301.34 z" fill="rgb(51,51,51)" transform="translate(0,0)"></path>
<path d="M 889.155 1232.59 C 896.159 1232.06 908.739 1229.86 913.933 1234.94 C 917.74 1245.32 916.875 1269.5 916.19 1280.99 C 884.347 1281.27 853.121 1279.7 820.942 1279.67 L 820.984 1304.75 C 832.616 1304.47 844.245 1304.04 855.866 1303.47 C 866.706 1302.84 881.831 1300.03 891.761 1302.27 C 895.258 1307.46 892.526 1318.38 893.035 1324.78 C 893.556 1331.32 893.968 1337.94 893.978 1344.48 C 894.009 1363.32 870.872 1349.2 861.052 1349.1 C 847.061 1348.87 832.386 1350.44 817.961 1349.35 L 818.236 1373.92 C 834.889 1373.67 852.065 1373.75 868.714 1374.5 C 880.048 1375.01 910.002 1370.66 917.946 1376.92 C 919.187 1378.52 921.228 1381 921.196 1383.05 C 920.982 1396.92 920.167 1410.91 920.038 1424.81 C 915.464 1424.95 907.132 1425.34 902.858 1424.94 C 894.025 1424.11 884.745 1421.7 875.798 1421.71 C 836.792 1421.74 797.779 1421.88 758.774 1421.75 C 758.681 1401.4 761.845 1380.78 762.26 1359.95 C 762.733 1336.27 765.894 1311.92 763.945 1287.98 C 762.603 1271.49 758.933 1253.17 761.069 1236.62 C 767.914 1228.83 869.963 1234.95 889.155 1232.59 z" fill="rgb(254,254,254)" transform="translate(0,0)"></path>
<path d="M 176.094 662.054 C 219.544 660.68 255.912 694.724 257.406 738.169 C 258.9 781.615 224.956 818.077 181.515 819.691 C 137.904 821.311 101.269 787.205 99.7691 743.59 C 98.2693 699.975 132.475 663.434 176.094 662.054 z" fill="rgb(254,254,254)" transform="translate(0,0)"></path>
<path d="M 174.728 669.645 C 213.761 667.438 247.247 697.173 249.671 736.193 C 252.095 775.213 222.547 808.863 183.541 811.505 C 144.227 814.167 110.252 784.334 107.808 745.006 C 105.365 705.677 135.387 671.869 174.728 669.645 z" fill="rgb(118,27,26)" transform="translate(0,0)"></path>
<path d="M 1228.9 1232.42 C 1247.81 1231.57 1264.27 1230.95 1282.8 1235.52 C 1285.1 1262.25 1278.5 1296.27 1279.85 1323.98 C 1280.26 1332.56 1282.08 1346.6 1281.71 1354.52 C 1280.68 1376.7 1284.45 1398.21 1283.09 1419.86 C 1282.94 1421.99 1281.57 1422.36 1280.07 1423.1 C 1264.94 1423.53 1249.74 1423.1 1234.62 1423.04 C 1217.26 1423.82 1224.17 1405.4 1224.54 1394.15 C 1226.24 1342.43 1222.48 1289.88 1223.42 1238.08 C 1223.46 1235.82 1227.08 1233.66 1228.9 1232.42 z" fill="rgb(254,254,254)" transform="translate(0,0)"></path>
<metadata><recraft-signature>{"signed_by": "recraft", "signature_b64": "LHztwI8PszMRv16dLjwYXQdQpDvhu9hMusP7sy2RK9dyOEe8sNcUWNSTTllAttFsZfRouFfERXgpngklSgbGCA==", "signing_algo": "Ed25519", "generation_timestamp": 1774384664, "identifier": "960334e9-1cd8-4303-9c1b-c42a8195630a"}</recraft-signature></metadata></svg>