<svg xmlns="http://www.w3.org/2000/svg" height="1024" preserveAspectRatio="none" style="display: block;" version="1.1" viewBox="0 0 2048 2048" width="1024">
<path d="M 0 0 L 2048 0 L 2048 2048 L 0 2048 L 0 0 z" fill="rgb(44,43,43)" transform="translate(0,0)"></path>
<path d="M 1542.11 769.029 C 1555.3 752.907 1568.23 741.701 1590.18 740.28 C 1687.81 733.961 1739.51 862.04 1680.63 933.682 C 1663.96 953.972 1631.04 964.806 1606.3 967.351 C 1606.55 975.954 1606.6 984.561 1606.47 993.167 C 1630.47 1009.17 1623.27 1042.86 1602.97 1056.77 C 1601.01 1063.92 1598.69 1071.76 1597.18 1078.94 C 1605.3 1090.26 1608.65 1101.89 1595.35 1111.7 C 1581.73 1121.76 1566.25 1120.5 1550.38 1118.49 C 1578.5 1139.17 1621.95 1169.89 1635.92 1202.3 C 1650.39 1235.87 1648.91 1279.63 1651.26 1315.71 C 1671.65 1318.1 1690.27 1311.6 1706.57 1321.67 C 1725.09 1351.48 1683.91 1364.46 1663.01 1372.53 C 1652.06 1376.76 1638.93 1382.75 1627.72 1385.57 C 1648.67 1388.12 1677.19 1384.58 1697.48 1386.82 C 1700.69 1386.72 1701.54 1387.39 1702.27 1390.21 L 1701.22 1391.87 C 1696.61 1394.14 1627.34 1392.92 1615.95 1392.91 L 1425.67 1392.37 C 1422.91 1395.17 1419.96 1398.37 1416.55 1400.28 C 1402.53 1408.14 1391.69 1397.4 1378.25 1394.16 C 1374.16 1393.17 1366.36 1393.09 1362.02 1393.06 L 1129.2 1392.88 C 1116.9 1392.91 1043.64 1394.42 1036.48 1392.19 L 1036.47 1389.11 C 1036.17 1389.29 1031.26 1392.32 1030.86 1392.34 C 1010.05 1393.37 988.372 1392.43 967.401 1392.95 C 966.119 1392.98 960.715 1390.53 959.991 1390.21 L 958.642 1389.6 C 957.545 1391.84 958.097 1391.11 956.138 1392.67 C 940.567 1392.71 917.033 1392.42 900.878 1392.31 C 899.58 1391.24 898.474 1390.32 897.56 1389.57 C 896.769 1389.86 891.793 1392.1 891.826 1392.1 C 870.836 1391.29 846.331 1394.26 825.7 1391.71 C 825.583 1391.19 825.467 1390.67 825.35 1390.15 C 826.155 1380.76 822.253 1383.66 816.665 1373.39 C 826.547 1343.78 839.764 1318.41 852.103 1289.87 C 862.702 1265.36 871.679 1239.74 880.857 1214.63 C 873.303 1211.86 865.202 1208.21 867.481 1198.26 C 881.069 1139.75 890.091 1077.08 917.134 1022.92 C 931.574 993.996 939.718 986.254 971.907 989.002 C 966.882 986.322 961.839 983.677 956.778 981.067 C 962.339 980.454 967.893 979.773 973.437 979.024 C 970.02 962.865 972.97 947.246 986.798 936.789 C 994.722 930.871 1004.69 928.387 1014.47 929.895 C 1029.85 932.157 1034.56 939.766 1046.64 948.23 C 1051.09 951.345 1053.9 950.642 1056.7 954.509 L 1056.04 957.444 C 1052.65 961.981 1047.08 963.477 1041.59 965.859 C 1043 988.463 1048.31 976.913 1054.13 988.595 C 1061.55 1003.47 1081.73 1103.74 1088.52 1109.98 C 1090.06 1110.03 1094.52 1110.11 1095.76 1110.46 C 1111.17 1114.91 1098.6 1141.33 1098.96 1143.35 C 1102.39 1162.6 1108.65 1183.08 1113.57 1202.26 L 1148.25 1338.43 C 1152.28 1354.35 1156.89 1369.95 1160.7 1385.95 L 1367.17 1385.88 C 1360.71 1381.8 1354.75 1376.97 1349.41 1371.5 C 1339.37 1361.18 1325.75 1341.86 1326.23 1326.73 C 1326.67 1312.74 1340.42 1306.94 1348.31 1299.19 C 1352.44 1295.12 1366.04 1278.92 1365.41 1273.16 C 1365.21 1271.38 1365.91 1267.53 1367.04 1266.15 C 1378.16 1252.5 1396.9 1240.94 1409.45 1228.44 L 1410.63 1227.25 C 1410.68 1218.41 1412.09 1200.87 1414.68 1192.33 C 1409.98 1173.96 1404.83 1162.15 1401.4 1142.41 L 1394.99 1137.85 C 1394.14 1114.54 1395.89 1087.58 1395.84 1063.94 C 1395.82 1056.05 1395.69 1022.73 1396.87 1016.69 C 1398.89 1015.38 1400.74 1014.98 1403.07 1014.2 C 1402.01 1012.88 1398.63 1012.66 1396.45 1012.19 C 1385.88 1014.14 1361.23 1021.47 1353.32 1016.58 C 1341.52 998.535 1331.67 923.402 1328.39 899.315 C 1327.46 892.496 1355.64 880.662 1362.05 877.192 C 1360.31 866.698 1356.89 853.53 1363.33 844.072 C 1371.16 832.574 1397.86 833.583 1410.08 835.97 C 1437.96 821.972 1465.69 807.671 1493.26 793.071 C 1505.06 786.868 1530.54 772.691 1542.11 769.029 z" fill="rgb(254,254,254)" transform="translate(0,0)"></path>
<path d="M 1588.47 964.546 C 1591.27 963.137 1593.8 961.61 1596.51 960.038 C 1598.61 975.493 1599.12 982.571 1598.78 997.971 C 1604.48 1000.74 1604.76 999.413 1605.22 1005.68 C 1608.8 1012.51 1618.13 1011.92 1613.06 1022.26 C 1611.11 1026.25 1606.08 1047.22 1603.58 1048.39 C 1589.62 1054.96 1593.08 1062.57 1587.31 1077.02 C 1590.98 1083.25 1597.87 1091.22 1595.18 1098.47 C 1588.67 1115.97 1563.41 1113.25 1549.77 1108.73 C 1549.13 1104.89 1549.25 1102.27 1546.44 1099.76 L 1544.56 1099.88 C 1540.08 1105.52 1540.52 1110.95 1541.05 1117.89 C 1541.28 1118.16 1541.5 1118.43 1541.73 1118.71 C 1571.52 1150.06 1621.23 1172.79 1633.16 1217.28 C 1641.29 1249.98 1642.14 1283.83 1643.81 1317.27 C 1644.37 1328.68 1675.58 1324.66 1682.46 1324.34 C 1718.09 1322.67 1704.01 1348.89 1681.03 1357.27 C 1662.81 1363.91 1644.56 1372.96 1625.93 1378.76 C 1597.87 1388.48 1595.03 1361.94 1594.7 1341.36 C 1590.98 1341.34 1579.36 1341.87 1578.11 1339.08 C 1565.19 1310.27 1567.55 1264.56 1548.67 1238.57 C 1544.83 1233.29 1523.91 1222.99 1516.47 1219.32 C 1503.1 1258.29 1476.5 1318.17 1427.15 1317.06 C 1417.51 1326.89 1405.67 1338.94 1398.83 1350.84 C 1404.83 1358.72 1422.48 1368.89 1421.47 1379.31 C 1421.09 1383.28 1419.06 1388.99 1415.83 1391.56 C 1411.74 1394.8 1407 1395.2 1401.97 1394.39 C 1379.56 1390.77 1357.28 1371.64 1344.89 1353.44 C 1339.88 1346.09 1332.49 1334.27 1334.39 1325.07 C 1335.86 1317.97 1368.1 1289.35 1375.88 1281.17 C 1374.07 1278.23 1371.84 1275.61 1371.93 1272.35 C 1381.11 1256.77 1415.51 1241.74 1424.62 1226.02 C 1427.25 1221.48 1427.78 1205.34 1428.64 1199.18 C 1421.85 1183.63 1412.74 1162.57 1410.62 1145.91 C 1410.18 1142.39 1410 1138.64 1408.21 1135.7 C 1407.2 1135.21 1403.98 1134.08 1403.91 1132.97 C 1401.69 1096.37 1404.34 1058.51 1405.55 1021.76 C 1405.61 1019.96 1404.34 1018.22 1403.22 1016.92 C 1400.74 1016.24 1399.44 1016.53 1396.87 1016.69 C 1398.89 1015.38 1400.74 1014.98 1403.07 1014.2 C 1402.01 1012.88 1398.63 1012.66 1396.45 1012.19 C 1443.18 1001.56 1493.33 992.155 1540.54 982.36 C 1552.39 981.113 1568.87 976.037 1582.34 973.91 C 1585.45 973.365 1586.07 973.276 1589.16 972.176 C 1590.45 969.056 1589.55 968.712 1588.47 964.546 z" fill="rgb(2,2,2)" transform="translate(0,0)"></path>
<path d="M 1588.34 982.244 L 1589.56 983.111 C 1589.56 988.019 1588.98 989.851 1587.9 994.735 C 1580.89 996.303 1563.05 999.261 1558.12 1004.13 C 1555.51 1006.71 1554.2 1012.81 1549.41 1011.66 C 1547.19 1007.72 1543.9 998.397 1545.29 994.051 C 1559.55 989.781 1573.9 985.844 1588.34 982.244 z" fill="rgb(254,254,254)" transform="translate(0,0)"></path>
<path d="M 1540.54 982.36 C 1552.39 981.113 1568.87 976.037 1582.34 973.91 C 1574.6 979.233 1568.73 976.657 1562.63 979.825 C 1560.66 990.198 1554.68 983.741 1546.73 990.89 L 1547.32 991.558 C 1559.05 987.855 1576.47 982.072 1588.34 982.244 C 1573.9 985.844 1559.55 989.781 1545.29 994.051 C 1545.8 990.211 1542.61 985.97 1540.54 982.36 z" fill="rgb(44,43,43)" transform="translate(0,0)"></path>
<path d="M 1530.48 1107.01 L 1531.52 1107.23 C 1532.97 1110.7 1527.63 1140.59 1526.25 1146.49 C 1514.27 1197.18 1502.61 1259.08 1462.36 1295.41 C 1436.79 1318.48 1407.81 1309.76 1387.78 1284.99 L 1380.91 1273.53 C 1389.69 1266.44 1398.56 1259.47 1407.51 1252.61 C 1415.25 1246.79 1424.31 1240.75 1431.21 1234.14 C 1441.18 1206 1435.48 1193.06 1425.02 1167.28 C 1421.86 1159.49 1418.3 1145.38 1416.13 1136.74 C 1434.94 1137.42 1454.08 1138.73 1472.17 1132.45 C 1481.35 1129.26 1488.21 1129.51 1490.74 1119.33 C 1501.94 1114.63 1516.12 1112.87 1530.48 1107.01 z" fill="rgb(254,254,254)" transform="translate(0,0)"></path>
<path d="M 1532.08 991.242 C 1534.86 992.19 1535.82 999.934 1536.81 1002.62 C 1542.98 1019.4 1544.43 1030.92 1545.06 1048.44 C 1525.42 1054.98 1510.29 1060.1 1490.25 1064.58 C 1479.76 1051.39 1471.37 1030.96 1461.79 1020.19 L 1459.87 1020.12 C 1452.56 1026.34 1459.65 1031.61 1463.68 1038.32 C 1471.87 1051.98 1475.93 1066.53 1490.96 1073.96 C 1508.06 1069.78 1531.96 1058.54 1549.55 1058.13 C 1560.39 1057.88 1558.92 1069.13 1557.43 1076.98 C 1552.43 1080.89 1549.08 1085.31 1543.38 1089.38 C 1523.75 1103.42 1496.46 1110.17 1472.73 1111.77 C 1456.55 1108.45 1440.38 1075.81 1432.16 1062.54 C 1429.4 1060.94 1430.85 1061.24 1427.68 1061.58 L 1426.73 1063.44 C 1427.14 1075.06 1440.45 1092.14 1447.42 1101.11 C 1455.73 1111.8 1463.11 1118.11 1476.26 1121.82 C 1451.71 1129.56 1436.89 1131.58 1411.19 1126.25 C 1410.84 1114.54 1411.55 1100.94 1411.75 1089.07 C 1412.03 1064.59 1412.66 1040.12 1413.64 1015.66 C 1449.17 1009.72 1497.03 999.662 1532.08 991.242 z" fill="rgb(254,254,254)" transform="translate(0,0)"></path>
<path d="M 1538.16 1128.76 C 1553.29 1142.01 1570.23 1154.63 1585.36 1167.84 C 1612.59 1191.6 1624.95 1206.36 1629.7 1242.9 C 1632.58 1265.06 1634.63 1286.54 1636.06 1309.2 C 1627.43 1317.82 1621.14 1322.16 1610.76 1328.36 C 1601.33 1333.2 1594.22 1333.68 1584.05 1334.24 C 1576.76 1305.76 1573.88 1277.16 1564.54 1249.24 C 1557.03 1226.82 1538.74 1220.64 1518.36 1211.13 C 1526.68 1182.93 1533.15 1157.56 1538.16 1128.76 z" fill="rgb(254,254,254)" transform="translate(0,0)"></path>
<path d="M 1379.27 1289.64 C 1380.65 1290.15 1380.26 1289.85 1381.37 1291.01 C 1393.98 1304.13 1400.83 1309.13 1417.8 1315.52 C 1407.55 1326.95 1396.5 1337.19 1389.89 1350.87 C 1395.4 1361.53 1414.97 1375.21 1411.94 1383.55 C 1408.89 1386.13 1408.5 1386 1404.39 1386.63 C 1372.58 1378.5 1352.2 1356.68 1339.97 1326.91 C 1345.9 1317.85 1357.19 1311.11 1365.31 1303.56 C 1370.44 1298.79 1374.43 1294.74 1379.27 1289.64 z" fill="rgb(254,254,254)" transform="translate(0,0)"></path>
<path d="M 1635.37 1322.12 C 1652.83 1343.95 1682.26 1326.42 1696.17 1334.1 C 1699.69 1344.15 1657.77 1358.35 1650.99 1361 C 1615.94 1376.44 1605.45 1384.82 1602.67 1340.58 C 1616.23 1335.15 1623.34 1330.16 1635.37 1322.12 z" fill="rgb(254,254,254)" transform="translate(0,0)"></path>
<path d="M 1551.77 1020.94 C 1559.48 1014.32 1577.53 1000.9 1587.75 1000.57 C 1590.52 1001.99 1589.56 1000.92 1590.61 1003.97 C 1588.04 1007.65 1582.15 1007.05 1576.46 1012.2 L 1576.47 1013.47 C 1585.99 1014.45 1597.3 1006.34 1603.45 1014.59 C 1600.98 1021.32 1582.79 1017.73 1577.05 1025.37 L 1577.48 1026.8 C 1583.83 1027.88 1594.52 1021.72 1603.06 1023.61 C 1605.4 1025.84 1604.71 1024.47 1604.8 1028.04 C 1599.92 1032.24 1594.08 1028.06 1580.87 1039.59 L 1579.79 1040.54 C 1585.24 1038.74 1595.42 1034.36 1600.05 1039.28 L 1599.02 1041.28 C 1594.07 1044.86 1588.94 1045.09 1582.61 1046.53 L 1581.73 1047.56 C 1570.86 1050.57 1565.42 1052.09 1554.18 1052.17 C 1552.93 1044.04 1552.46 1029.7 1551.77 1020.94 z" fill="rgb(254,254,254)" transform="translate(0,0)"></path>
<path d="M 1581.73 1047.56 L 1582.61 1046.53 C 1585.04 1062.24 1580.82 1072.22 1577.52 1086.86 C 1580.87 1084.92 1582.03 1083.61 1585.56 1083.41 C 1583.72 1086.55 1582.06 1087.58 1579.28 1089.88 C 1572.48 1089.62 1567.64 1090.13 1561.94 1086.44 L 1562.17 1085.26 C 1566.29 1084.04 1571.45 1085.37 1575.91 1086.06 C 1576.7 1080.8 1580.18 1061.28 1579.2 1057.41 L 1577.57 1056.3 C 1567.8 1060.98 1576.33 1078.38 1569.56 1082.31 C 1564.93 1077.47 1568.08 1060.79 1573.35 1056.54 C 1575.27 1054.99 1577.22 1053.97 1579.43 1052.91 C 1581.07 1050.37 1581 1050.51 1581.73 1047.56 z" fill="rgb(254,254,254)" transform="translate(0,0)"></path>
<path d="M 1557.14 1097.66 C 1566.34 1099.27 1570.75 1103.44 1581.82 1100.74 L 1585.33 1099.89 L 1587.28 1099.41 L 1587.57 1101.13 C 1577.04 1105.6 1564.1 1109.55 1557.14 1097.66 z" fill="rgb(254,254,254)" transform="translate(0,0)"></path>
<path d="M 1556.88 1093.12 C 1559.12 1093.21 1582.66 1095.12 1583.07 1095.36 C 1574.62 1098.21 1563.92 1099.96 1556.88 1093.12 z" fill="rgb(230,230,232)" transform="translate(0,0)"></path>
<path d="M 1520.9 1230.64 C 1525.55 1232.92 1539.35 1239.29 1541.92 1243.1 C 1560.6 1270.82 1557.36 1316.83 1571.96 1345.87 C 1573.51 1348.96 1582.86 1349.38 1586.94 1349.79 C 1588.57 1362.7 1591.18 1378.99 1603.76 1385.55 L 1603.99 1386.82 C 1564.29 1384.62 1518.38 1387.61 1478.23 1386.39 C 1466.54 1386.04 1440.16 1387.35 1430.03 1385.41 C 1430.88 1361.85 1423.34 1366.93 1409.08 1350.47 C 1415.74 1340.99 1421.16 1334.13 1429.56 1326.15 C 1434.68 1324.96 1439.72 1324.43 1444.9 1322.97 C 1486.62 1311.26 1506.76 1267.59 1520.9 1230.64 z" fill="rgb(44,43,43)" transform="translate(0,0)"></path>
<path d="M 1513.59 804.449 C 1517.87 800.213 1518.74 798.883 1522.09 793.895 L 1524.11 797.757 L 1523.56 799.299 C 1511.84 840.862 1521.68 901.114 1553.82 933.041 C 1559.21 938.394 1565.37 941.264 1572.2 944.356 C 1537.41 911.269 1521.77 875.973 1524.22 827.167 C 1526.02 830.609 1526 830.759 1526.92 834.589 C 1528.46 871.125 1542.21 909.722 1569.49 935.039 C 1587.37 951.627 1596.43 949.309 1614.11 959.463 C 1609.24 959.441 1602.25 959.211 1597.54 959.444 L 1596.51 960.038 C 1593.8 961.61 1591.27 963.137 1588.47 964.546 C 1588.02 962.573 1587.54 960.606 1587.04 958.644 C 1574.43 952.909 1566.66 954.19 1553.18 955.361 C 1560.94 961.403 1564.85 963.442 1573.65 968.312 C 1523.27 977.331 1473.08 989.639 1422.56 998.366 C 1402.39 1001.85 1378.08 1008.93 1358.11 1010.44 C 1354.65 1000.54 1351.65 982.444 1349.57 971.37 C 1351.2 973.506 1352.89 975.6 1354.64 977.65 C 1361.47 985.547 1371.73 990.855 1382.21 991.425 C 1393.73 992.078 1405.03 988.054 1413.55 980.265 C 1425.08 969.55 1426.4 958.97 1426.88 944.556 C 1431.68 953.592 1435.79 960.517 1444.04 967.121 C 1462.9 982.312 1494.94 977.029 1509.04 957.709 C 1518.95 944.132 1519.92 931.287 1517.5 915.403 C 1520.53 919.227 1523.77 922.889 1527.19 926.373 C 1541.97 941.63 1557.32 951.516 1578.72 951.801 C 1562.72 945.344 1543.11 936.608 1530.87 924.397 C 1511.32 904.897 1502.62 875.042 1502.71 847.959 C 1502.75 836.321 1503.68 817.093 1512.34 808.562 L 1513.59 804.449 z" fill="rgb(2,2,2)" transform="translate(0,0)"></path>
<path d="M 1587.04 958.644 C 1588.57 956.67 1588.34 957.71 1588.53 955.595 L 1590.45 954.752 L 1592.06 955.962 C 1594.14 957.5 1595.31 958.182 1597.54 959.444 L 1596.51 960.038 C 1593.8 961.61 1591.27 963.137 1588.47 964.546 C 1588.02 962.573 1587.54 960.606 1587.04 958.644 z" fill="rgb(44,43,43)" transform="translate(0,0)"></path>
<path d="M 1513.59 804.449 C 1517.87 800.213 1518.74 798.883 1522.09 793.895 L 1524.11 797.757 L 1523.56 799.299 C 1519.78 800.694 1515.92 805.643 1512.34 808.562 L 1513.59 804.449 z" fill="rgb(230,230,232)" transform="translate(0,0)"></path>
<path d="M 1513.59 804.449 C 1504.87 810.862 1384.71 868.781 1379.7 868.722 C 1378.54 866.665 1378.19 866.72 1378.86 863.823 C 1379.41 861.391 1382.29 858.433 1384.52 857.33 C 1396.54 851.392 1409 845.89 1420.95 839.843 C 1456.99 821.8 1492.75 803.214 1528.23 784.092 C 1526.31 787.363 1524.13 790.682 1522.09 793.895 C 1518.74 798.883 1517.87 800.213 1513.59 804.449 z" fill="rgb(2,2,2)" transform="translate(0,0)"></path>
<path d="M 1603.76 1385.55 C 1612.96 1386.24 1618.71 1385.68 1627.72 1385.57 C 1648.67 1388.12 1677.19 1384.58 1697.48 1386.82 C 1683.61 1387.95 1662.01 1386.9 1647.5 1387.19 C 1635.78 1387.42 1614.11 1388.48 1603.99 1386.82 L 1603.76 1385.55 z" fill="rgb(166,164,166)" transform="translate(0,0)"></path>
<path d="M 1524.22 827.167 C 1524.66 815.979 1526.26 809.673 1528.53 798.654 C 1527.71 809.636 1526.86 823.591 1526.92 834.589 C 1526 830.759 1526.02 830.609 1524.22 827.167 z" fill="rgb(44,43,43)" transform="translate(0,0)"></path>
<path d="M 977.59 985.876 L 978.137 984.713 C 984.81 970.227 971.934 960.58 986.276 946.658 C 1011.67 922.009 1027.77 944.669 1048.86 957.508 C 1044.28 959.26 1033.51 962.353 1031.79 966.028 L 1032.42 964.293 L 1030.16 965.896 C 1032.25 966.32 1035.55 966.473 1035.93 968.54 C 1037.23 975.667 1041.18 984.087 1038.31 990.725 C 1034.97 993.376 1036.8 992.702 1032.71 993.018 C 1028.42 990.839 1026.41 988.311 1023.08 988.401 L 1022.63 989.675 C 1026.97 995.68 1026.44 994.665 1022.82 1001.66 C 1018.52 1009.97 1021.52 1014.29 1026.62 1020.95 L 1026.66 1021.46 C 1021.24 1017.03 1009.85 1003.59 1006.43 997.472 C 1007.87 995.88 1011.55 992.762 1010.77 990.687 C 1008 983.356 1005.08 975.172 996.3 976.141 C 993.919 979.923 992.837 988.633 992.936 993.06 C 995.236 997.934 997.093 997.189 999.403 999.588 C 1004.28 1004.65 1017.02 1022.73 1020.9 1028.79 C 1016.7 1031.83 1013.14 1034.13 1009.53 1037.88 C 1006.71 1046.84 1006.47 1053.22 1006.72 1062.48 C 1006.86 1067.43 1007.7 1074.23 1004.23 1077.92 C 998.927 1078.67 997.043 1075.78 992.963 1072.38 C 1002.58 1058.31 1001.22 1052.01 1002.02 1035.07 L 995.216 1025.67 C 997.171 1043.8 997.468 1062.24 982.066 1075.15 C 986.295 1078.08 998.634 1086.07 1001.62 1089.32 C 1001.48 1090.98 1001.4 1092.22 1001.56 1093.9 C 1008.29 1095.1 1003.04 1090.91 1009.17 1094.13 C 1010.17 1096.13 1010.91 1097.65 1011.76 1099.72 C 1018.52 1103.02 1039.87 1112.07 1042.69 1117.37 C 1042.79 1122.29 1041.66 1130.11 1036.86 1132.67 C 1034.34 1132.22 1030.25 1129.85 1027.85 1128.5 C 1011.09 1119.06 993.236 1112.44 975.854 1104.36 C 972.942 1103 971.84 1102.66 970.048 1100.22 C 971.853 1098.91 972.043 1099.09 973.124 1097.16 C 967.889 1095.17 940.312 1105.93 935.231 1093.02 C 930.617 1081.29 931.191 1068 928.106 1055.87 C 925.39 1071.98 921.471 1104.14 945.402 1105.29 C 964.541 1106.2 971.712 1107.24 987.946 1118.08 C 987.826 1126.58 987.278 1139.08 988.225 1147.35 C 989.37 1157.36 1002.72 1195.11 995.502 1202.98 C 993.146 1203.98 991.019 1204.9 988.585 1205.73 C 993.869 1260.15 987.074 1308.36 990.277 1358.25 L 991.577 1358.99 C 999.899 1363.7 1039.76 1373.55 1035.32 1381.59 C 1023.6 1388.62 980.015 1386.1 964.181 1386.04 C 963.143 1377.38 962.88 1370.46 963.667 1361.7 C 972.385 1359.62 976.896 1358.58 985.164 1354.83 C 977.84 1354.83 970.515 1354.89 963.191 1354.99 C 959.82 1308.12 954.399 1266.69 948.936 1220.28 C 955.865 1220.06 968.593 1220.58 973.838 1216.88 C 974.796 1213.57 974.816 1215.16 973.915 1211.95 C 971.013 1211.26 952.481 1213.84 945.609 1213.8 C 947.41 1212.48 951.602 1209.79 952.435 1208.13 C 949.958 1208.39 950.061 1208.15 948.148 1209.6 C 937.574 1217.61 880.419 1208.68 874.215 1203.8 C 871.543 1197.64 895.999 1099.51 899.921 1085.78 C 903.083 1074.63 906.78 1063.63 911.001 1052.84 C 917.551 1036.19 930.06 1005.45 945.757 996.153 C 954.803 990.797 975.639 992.998 984.45 1000.38 C 983.704 997.129 980.676 990.83 979.21 987.523 C 977.59 986.631 978.017 987.272 977.59 985.876 z" fill="rgb(44,43,43)" transform="translate(0,0)"></path>
<path d="M 977.59 985.876 C 987.456 985.877 990.024 995.668 984.45 1000.38 C 983.704 997.129 980.676 990.83 979.21 987.523 C 977.59 986.631 978.017 987.272 977.59 985.876 z" fill="rgb(61,60,61)" transform="translate(0,0)"></path>
<path d="M 901.557 1109.98 C 903.048 1110.57 903.362 1110.62 904.259 1111.33 C 926.123 1128.48 940.263 1113.17 945.251 1114.55 L 945.191 1116.13 C 936.724 1121.92 932.762 1123.02 923.207 1125.58 C 913.123 1123.2 905.943 1119.99 901.557 1109.98 z" fill="rgb(254,254,254)" transform="translate(0,0)"></path>
<path d="M 986.273 1004.64 C 989.947 1007.4 993.289 1013.37 995.879 1017.38 C 990.832 1015.28 988.543 1009.41 986.273 1004.64 z" fill="rgb(110,109,109)" transform="translate(0,0)"></path>
<path d="M 993.867 1118.4 C 1008.56 1124.36 1019.66 1132.01 1033.76 1138.6 C 1037.75 1140.46 1048.9 1139.28 1052.57 1140.85 C 1064.66 1146 1067.15 1148.97 1080.47 1151.38 C 1087.02 1169.25 1096.19 1211.82 1101.77 1232.72 L 1143.98 1386.02 L 1129.99 1386.08 C 1104.98 1386.11 1066.82 1385.98 1040.8 1386.25 C 1041.23 1386.25 1037.43 1387.54 1038.02 1387.33 C 1039.81 1382.55 1042.02 1380.67 1041.71 1375.9 C 1037.34 1367.27 1008.21 1359.12 997.086 1354.8 C 995.095 1335.48 996.537 1308.77 996.928 1288.79 C 997.662 1262.94 997.087 1237.08 995.206 1211.3 C 1008.06 1202.49 1003.09 1187.94 1000.34 1174.01 C 996.437 1154.21 993.946 1138.69 993.867 1118.4 z" fill="rgb(44,43,43)" transform="translate(0,0)"></path>
<path d="M 1596.57 749.375 C 1674.29 746.528 1722.21 853.01 1682.92 914.904 C 1670 935.256 1658.43 944.286 1635.52 950.584 C 1614.16 952.608 1596.43 944.065 1579.42 931.965 C 1523.88 892.455 1508.53 758.816 1596.57 749.375 z" fill="rgb(2,2,2)" transform="translate(0,0)"></path>
<path d="M 1579.57 820.236 C 1621.35 817.449 1641.21 885.548 1594.33 896.901 C 1553.53 899.112 1534.35 831.771 1579.57 820.236 z" fill="rgb(254,254,254)" transform="translate(0,0)"></path>
<path d="M 1582.42 829.336 C 1616.24 832.123 1626.43 880.82 1592.76 888.014 C 1558.99 884.226 1548.28 835.356 1582.42 829.336 z" fill="rgb(2,2,2)" transform="translate(0,0)"></path>
<path d="M 941.315 1223.68 C 943.685 1226.61 945.397 1244.93 946.083 1249.94 C 952.34 1295.62 957.207 1339.88 957.14 1386.03 L 900.396 1385.9 C 902.926 1379.74 903.618 1377.67 899.581 1372.13 C 891.139 1365.95 875.109 1359.61 865.09 1355.28 C 885.481 1325.23 904.442 1294.23 921.911 1262.39 C 928.952 1249.36 934.553 1236.32 941.315 1223.68 z" fill="rgb(44,43,43)" transform="translate(0,0)"></path>
<path d="M 888.147 1213.62 C 896.982 1217.69 924.964 1219.01 935.915 1219.46 C 923.487 1251.52 897.018 1291.13 879.13 1321.18 C 872.639 1332.08 861.503 1347.29 856.792 1358.06 C 866.728 1363.22 889.435 1371.33 895.083 1378.87 C 895.345 1382.61 895.404 1381.29 892.742 1385.1 C 875.851 1386.33 852.086 1385.69 834.69 1385.74 C 831.436 1379.43 829.277 1378.62 823.598 1374.32 C 825.92 1364.11 828.998 1357.38 832.915 1347.73 C 836.917 1350 840.011 1352.39 844.47 1352.51 L 845.181 1351.24 C 842.729 1347.69 838.852 1346.34 834.859 1344.32 L 888.147 1213.62 z" fill="rgb(44,43,43)" transform="translate(0,0)"></path>
<path d="M 1499.14 824.222 C 1499.17 825.074 1497.53 839.86 1497.39 842.848 C 1496.34 864.019 1500.63 878.044 1507.24 897.613 C 1499.42 889.658 1489.91 884.014 1478.78 882.295 C 1467.3 880.532 1455.61 883.529 1446.4 890.593 C 1431.96 901.523 1428.16 915.495 1425.56 932.133 C 1424.83 930.526 1424.03 928.954 1423.15 927.423 C 1409.18 903.512 1383.94 894.624 1359.58 909.834 C 1347.82 919.938 1345.3 929.01 1342.41 943.413 C 1339.85 931.215 1336.68 913.871 1335.69 901.635 C 1348.87 893.598 1364.72 887.912 1378.46 881.061 C 1417.9 861.411 1460.11 844.347 1499.14 824.222 z" fill="rgb(2,2,2)" transform="translate(0,0)"></path>
<path d="M 1468.51 892.072 C 1482.11 890.633 1495.43 896.656 1503.34 907.82 C 1511.25 918.985 1512.51 933.55 1506.63 945.906 C 1500.76 958.262 1488.67 966.483 1475.02 967.402 C 1454.47 968.785 1436.59 953.459 1434.81 932.933 C 1433.04 912.408 1448.02 894.239 1468.51 892.072 z" fill="rgb(2,2,2)" transform="translate(0,0)"></path>
<path d="M 1377.65 913.069 C 1396.43 909.335 1414.68 921.534 1418.41 940.314 C 1422.15 959.095 1409.95 977.346 1391.17 981.079 C 1372.39 984.811 1354.14 972.613 1350.4 953.833 C 1346.67 935.052 1358.87 916.802 1377.65 913.069 z" fill="rgb(2,2,2)" transform="translate(0,0)"></path>
<path d="M 1049.66 1109.59 C 1062.32 1112.34 1063.01 1110.95 1072.61 1119.33 C 1078.91 1119.22 1086.66 1118.24 1093.05 1117.6 C 1105.23 1143.87 1090.02 1135.24 1084.48 1141.62 L 1084.76 1143.36 C 1085.49 1143.76 1086.21 1144.17 1086.93 1144.58 C 1096.79 1150.3 1095.85 1157.85 1098.46 1168.27 L 1110.38 1215.86 C 1123.88 1269.57 1137.67 1323.2 1151.77 1376.76 C 1152.95 1380.85 1153.79 1382.22 1152.57 1385.74 C 1146.07 1380.11 1091.85 1169.86 1086.11 1145.58 C 1074.58 1141.5 1054.19 1134.84 1044.54 1130.57 C 1045.43 1123.43 1046.8 1116.21 1049.66 1109.59 z" fill="rgb(44,43,43)" transform="translate(0,0)"></path>
<path d="M 1038.72 1023.38 L 1039.65 1023.04 C 1040.09 1023.34 1040.54 1023.63 1040.98 1023.92 C 1044.71 1041.41 1056.94 1090.08 1060.56 1104.72 L 1038.29 1099.13 C 1032.48 1097.45 1031.27 1096.72 1026.01 1093.65 C 1015.37 1077.76 1010.81 1054.33 1021.23 1037.33 C 1027.31 1034.22 1030.04 1033.97 1032.75 1028.07 C 1032.38 1025.46 1032.2 1026.42 1033.03 1024.08 L 1038.72 1023.38 z" fill="rgb(44,43,43)" transform="translate(0,0)"></path>
<path d="M 1048.72 991.893 C 1050.65 995.573 1056.46 1018.02 1057.24 1022.15 C 1059.76 1035.43 1082.68 1108.55 1077.87 1113.39 L 1075.36 1112.64 L 1067.83 1105.99 C 1062.48 1084.69 1057.04 1063.34 1051.85 1042 C 1048.22 1027.08 1046.1 1012.92 1041.14 998.253 L 1048.72 991.893 z" fill="rgb(44,43,43)" transform="translate(0,0)"></path>
<path d="M 1393.6 842.597 L 1394.66 842.487 C 1391.76 846.288 1376.87 851.148 1371.94 852.963 C 1372.2 859.685 1374.49 868.161 1371.67 874.042 C 1369.65 870.51 1366.67 860.671 1366.65 856.658 C 1366.55 841.506 1384.91 842.805 1393.6 842.597 z" fill="rgb(2,2,2)" transform="translate(0,0)"></path>
<path d="M 1033.54 997.549 C 1037.78 1000.9 1040.43 1011.08 1039.32 1016.1 L 1037.25 1017.29 C 1023.58 1013.49 1028.48 1006.19 1033.54 997.549 z" fill="rgb(44,43,43)" transform="translate(0,0)"></path>
<path d="M 738.946 435.694 L 829.277 435.492 C 867.495 513.12 905.186 596.692 941.658 675.431 L 978.909 755.347 C 986.563 771.467 995.503 788.724 1002.31 805.042 L 898.091 805.25 C 887.397 783.749 876.244 757.164 866.382 734.983 C 858.225 735.337 849.79 735.437 841.606 735.642 L 699.761 736.008 C 690.555 757.785 681.113 779.461 671.437 801.034 L 571.253 801.092 C 598.778 743.969 624.934 684.232 651.917 626.684 C 671.387 585.493 690.426 544.098 709.03 502.508 C 719.019 480.474 729.978 458.026 738.946 435.694 z" fill="rgb(254,254,254)" transform="translate(0,0)"></path>
<path d="M 783.023 545.51 C 788.555 551.536 828.554 646.415 835.7 661.996 L 787.5 662.023 L 733.64 661.987 C 751.113 623.967 766.619 584.079 783.023 545.51 z" fill="rgb(44,43,43)" transform="translate(0,0)"></path>
<path d="M 1109.23 435.775 L 1123.05 435.706 L 1160.97 435.814 C 1187.96 474.867 1209.99 507.878 1234.99 548.145 C 1260.05 510.275 1286.06 473.55 1311.02 435.907 L 1418.65 436.036 C 1404.99 456.658 1389.91 477.653 1375.2 497.6 C 1346.66 536.313 1319.45 576.507 1290.78 615.05 C 1310.56 640.118 1329.64 667.574 1348.57 693.458 C 1376.16 730.529 1403.17 768.03 1429.58 805.948 L 1317.11 805.917 C 1290.24 766.955 1260.55 720.678 1233.3 683.223 L 1186.56 758.343 C 1177.58 772.532 1165 790.879 1156.81 804.91 L 1046.66 804.995 C 1061.59 781.943 1077.6 759.443 1093.32 736.925 C 1121.61 696.413 1150.09 656.316 1179.44 616.561 C 1144.73 568.434 1110.53 519.934 1076.86 471.072 L 1072.55 465.053 L 1051.11 435.922 C 1070.14 435.898 1090.3 436.224 1109.23 435.775 z" fill="rgb(254,254,254)" transform="translate(0,0)"></path>
<path d="M 1023.11 256.231 C 1040.94 269.855 1061.23 283.868 1079.54 297.048 L 1194.3 379.319 C 1178.63 396.115 1134.42 421.482 1123.05 435.706 L 1109.23 435.775 C 1090.3 436.224 1070.14 435.898 1051.11 435.922 L 1072.55 465.053 L 1076.86 471.072 C 1059.7 483.421 1042.66 495.932 1025.73 508.603 C 983.212 479.282 941.27 449.13 899.932 418.162 C 886.853 408.47 861.338 391.211 850.857 380.969 C 861.158 371.783 889.389 353.04 901.873 343.958 L 1023.11 256.231 z" fill="rgb(44,43,43)" transform="translate(0,0)"></path>
<path d="M 1023.11 256.231 C 1040.94 269.855 1061.23 283.868 1079.54 297.048 L 1194.3 379.319 C 1178.63 396.115 1134.42 421.482 1123.05 435.706 L 1109.23 435.775 C 1117.15 425.494 1166.74 391.578 1180.72 380.811 C 1171.62 373.036 1161.64 366.523 1151.98 359.5 C 1109.22 328.438 1064.31 298.842 1022.88 266.1 C 1010.14 276.356 996.064 286.565 982.586 295.954 C 942.696 323.738 903.665 353.727 863.593 381.101 C 914.082 421.938 973.005 458.469 1025.16 497.954 C 1033.6 491.666 1064.68 467.578 1072.55 465.053 L 1076.86 471.072 C 1059.7 483.421 1042.66 495.932 1025.73 508.603 C 983.212 479.282 941.27 449.13 899.932 418.162 C 886.853 408.47 861.338 391.211 850.857 380.969 C 861.158 371.783 889.389 353.04 901.873 343.958 L 1023.11 256.231 z" fill="rgb(176,38,32)" transform="translate(0,0)"></path>
<path d="M 1035.15 325.303 C 1033.55 322.066 1033.68 320.564 1035.58 317.188 C 1041.96 316.396 1116.06 371.907 1129.13 380.851 C 1113.09 393.129 1095.77 404.57 1079.2 416.17 C 1069.78 422.763 1059.98 428.58 1051.11 435.922 C 1047.05 439.107 1043.05 442.199 1039.13 445.562 L 1034.55 437.441 C 1056.06 424.339 1091.15 396.935 1113.71 381.221 C 1087.9 362.056 1061.71 343.413 1035.15 325.303 z" fill="rgb(176,38,32)" transform="translate(0,0)"></path>
<path d="M 1010.41 315.891 C 1011.67 316.212 1010.88 315.898 1012.42 317.45 C 1012.44 318.637 1012.56 320.25 1012.32 321.449 C 1011.14 327.227 942.687 374.058 932.5 381.53 C 949.379 395.444 970.057 408.53 987.884 421.51 C 996.442 427.741 1005.53 432.987 1013.36 440.173 C 1014.29 443.899 1014.11 443.886 1013.5 447.514 C 1010.34 447.796 1009.31 446.294 1005.9 444.266 C 982.361 429.402 938.026 399.324 917.58 381.355 C 945.533 360.619 981.165 334.331 1010.41 315.891 z" fill="rgb(176,38,32)" transform="translate(0,0)"></path>
<path d="M 536.509 901.935 C 538.492 895.641 539.878 891.434 543.506 885.763 C 550.346 874.905 561.335 867.321 573.914 864.779 C 587.578 862.099 605.89 865.809 616.93 874.099 C 628.685 882.925 632.085 888.826 634.448 902.236 C 643.853 906.455 660.324 912.471 663.184 923.105 C 660.396 936.168 635.533 933.637 625.635 932.862 C 625.836 938.029 626.481 942.916 627.076 948.043 C 608.181 959.807 616.911 964.673 602.578 979.131 C 600.668 981.057 587.367 980.188 584.179 977.841 L 584.176 976.311 L 587.688 974.669 L 585.324 972.573 C 593.734 970.081 590.986 977.871 601.044 969.228 C 600.552 965.815 600.635 966.048 598.631 963.238 C 595.688 966.605 593.86 968.043 589.114 968.398 C 578.7 969.176 550.77 954.131 546.291 945.609 L 546.985 944.171 C 556.522 942.587 554.158 940.371 563.799 934.033 C 568.651 933.998 583.362 934.7 586.172 932.011 C 586.569 930.002 586.354 928.516 587.718 928.158 C 597.435 925.603 611.618 925.618 621.679 924.088 C 628.499 928.287 649.834 929.321 655.073 922.62 C 652.157 915.293 633.076 909.263 625.635 907.82 C 626.831 901.311 628.312 895.24 623.918 889.956 C 608.739 871.705 578.208 862.619 558.425 879.592 C 553.952 883.43 546.811 890.052 545.28 896.665 C 545.417 903.847 547.791 933.465 542.735 937.978 L 538.461 938.399 C 538.533 943.233 543.115 940.846 537.822 946.982 C 532.987 952.585 526.291 946.555 520.022 946.99 C 510.172 947.804 496.064 954.519 488.504 960.852 C 449.293 993.701 420.357 1044.02 410.235 1094.07 C 408.243 1103.92 409.508 1113.15 418.014 1119.02 C 405.551 1153.39 400.954 1199.72 405.8 1236 C 386.129 1267.71 375.879 1304.15 360.191 1337.63 C 353.504 1346.84 329.355 1355.72 347.361 1368.23 C 363.306 1379.31 379.455 1393.89 394.989 1405.62 C 401.971 1410.9 423.423 1412.46 430.392 1404.21 C 434.712 1391.49 413.356 1379.89 404.475 1374.84 C 414.273 1350.41 423.87 1328.44 436.846 1305.43 C 443.399 1293.82 452.025 1285.12 457.521 1272.8 C 469.136 1246.76 470.625 1218.24 477.673 1191.81 C 491.834 1216.32 512.318 1259.99 521.827 1286.82 C 529.105 1307.36 533.722 1329.47 543.554 1349.02 C 547.013 1355.9 568.33 1383.4 567.877 1387.01 C 566.982 1394.13 567.008 1399.72 571.818 1405.57 C 575.149 1409.61 579.61 1413.1 585.028 1413.37 C 600.832 1414.18 641.95 1380.41 653.407 1369.02 C 657.447 1365.01 661.701 1359.72 661.841 1353.74 C 661.921 1350.35 660.493 1347.4 658.016 1345.13 C 656.406 1343.65 654.045 1342.32 651.828 1342.26 C 645.954 1342.09 624.266 1357.99 616.877 1361.8 C 602.75 1330.03 592.297 1299.18 581.048 1266.36 C 572.16 1240.87 563.489 1215.31 555.038 1189.67 C 549.007 1171.03 541.971 1145.71 535.312 1128.05 C 537.126 1121.49 539.763 1101.35 541.083 1093.25 C 543.119 1103.57 545.443 1118.12 554.704 1124.1 C 572.902 1135.63 592.159 1114.43 601.977 1100.95 C 607.932 1092.77 616.463 1084.17 621.069 1075.38 C 629.308 1059.66 636.986 1052.8 620.951 1040.94 C 615.849 1016.25 610.245 998.707 584.134 988.883 C 587.92 1008 592.506 1006.48 599.075 1022.77 C 602.917 1032.3 602.908 1041.7 608.619 1053.12 C 602.372 1059.64 591.745 1071.17 582.908 1072.85 C 581.006 1072.26 578.641 1071.67 578.205 1069.34 C 574.302 1048.51 582.912 1024.67 580.121 1002.48 C 576.967 977.416 557.69 968.563 556.764 964.245 C 561.655 967.039 578.012 981.647 577.585 981.52 C 602.277 988.86 616.309 996.102 624.194 1025.84 C 625.321 1030.14 626.264 1034.49 627.02 1038.87 C 631.145 1041.59 635.564 1044.38 636.328 1049.58 C 638.137 1061.92 626.55 1080.36 619.448 1089.44 C 601.89 1111.91 578.329 1151.06 545.745 1126.31 C 544.498 1125.36 543.264 1124.39 542.044 1123.41 C 550.96 1160.97 567.901 1206.37 580.42 1243.38 C 592.295 1278.49 605.581 1319.66 620.577 1352.85 L 621.831 1352.21 C 628.7 1348.67 647.835 1332.66 654.393 1335.73 C 685.007 1350.07 660.744 1372.82 644.153 1385.9 L 755.754 1385.93 C 766.466 1385.92 816.486 1384.33 821.164 1388.4 C 820.274 1390.49 819.91 1390.45 817.853 1391.25 C 808.522 1394.85 658.862 1392.33 634.143 1393 C 623.883 1400.44 602.377 1417.41 590.634 1419.92 C 586.747 1419.86 584.484 1419.94 580.619 1420.34 C 567.316 1416.07 563.272 1404.95 560.296 1392.63 C 519.008 1392.98 477.718 1393.07 436.428 1392.93 C 438.5 1399.25 440.28 1407.15 433.779 1411.15 C 407.029 1427.62 385.417 1409.15 367.304 1390.9 C 359.803 1383.34 342.031 1377.51 335.534 1366.91 C 327.526 1353.85 346.229 1340.69 354.845 1335.19 C 359.08 1326.86 365.575 1307.73 369.28 1298.19 C 377.658 1276.05 387.591 1254.53 399.007 1233.78 C 398.294 1189.22 395.106 1167.02 410.008 1121.65 C 384.439 1100.08 433.464 1012.45 449.241 992.636 C 465.046 972.785 483.832 948.362 510.535 942.798 C 517.693 941.307 523.994 942.036 530.922 940.987 C 533.804 935.459 534.192 934.502 539.061 930.709 C 537.627 916.594 542.378 916.048 536.509 901.935 z" fill="rgb(254,254,254)" transform="translate(0,0)"></path>
<path d="M 598.631 963.238 C 598.989 962.413 611.919 940.206 611.893 943.138 C 611.966 934.799 615.603 930.875 620.138 924.017 C 620.179 929.072 620.914 943.027 619.05 946.984 C 615.794 949.256 617.341 949.103 614.246 948.975 L 611.165 946.546 C 607.446 956.426 608.807 961.255 601.044 969.228 C 600.552 965.815 600.635 966.048 598.631 963.238 z" fill="rgb(44,43,43)" transform="translate(0,0)"></path>
<path d="M 480.296 1213.54 C 483.758 1216.47 510.076 1274.19 512.924 1281.84 C 526.903 1319.39 531.353 1355.59 561.322 1386.07 C 538.49 1386.43 514.837 1386.14 491.943 1386.15 L 432.097 1386.01 C 425.219 1379.71 420.731 1376.95 412.707 1372.55 C 418.331 1356.55 436.824 1316.62 446.591 1303.03 C 470.406 1269.9 471.762 1254.01 480.296 1213.54 z" fill="rgb(44,43,43)" transform="translate(0,0)"></path>
<path d="M 588.336 1012.73 C 592.026 1017.55 593.843 1025.76 595.264 1031.63 L 587.995 1043.92 C 588.364 1050.49 591.028 1056.11 591.407 1060.61 C 588.895 1062.31 585.772 1064.01 583.104 1065.55 C 583.162 1050.97 586.608 1027.9 588.336 1012.73 z" fill="rgb(44,43,43)" transform="translate(0,0)"></path>
<path d="M 998.981 1506.5 L 1007.26 1506.36 C 1049.97 1505.83 1105.53 1499.92 1137.86 1533.05 C 1171.12 1567.15 1168.86 1619.56 1135.6 1652.68 C 1107.54 1676.56 1079.34 1676.17 1044.55 1676.15 L 998.052 1676.06 C 997.875 1657.86 996.748 1513.2 998.981 1506.5 z" fill="rgb(254,254,254)" transform="translate(0,0)"></path>
<path d="M 1034.11 1537.16 C 1057.86 1537.08 1089.87 1534.15 1108.26 1551.59 C 1130.43 1572.6 1129.38 1609.94 1108.99 1631.76 C 1088.13 1650.37 1060.93 1646.18 1034.16 1646.09 L 1034.11 1537.16 z" fill="rgb(44,43,43)" transform="translate(0,0)"></path>
<path d="M 568.03 1506.25 L 605.547 1506.07 C 623.182 1531.01 639.22 1558.62 657.218 1583.26 C 672.827 1564.88 694.933 1527.26 708.068 1506.11 C 720.618 1506.1 732.887 1506.03 745.432 1506.57 C 745.772 1563.05 745.749 1619.52 745.363 1676 L 710.937 1676.04 L 710.973 1597.5 L 710.867 1557.84 C 694.708 1582.32 678.821 1607.77 663.01 1632.53 L 650.512 1632.22 C 634.023 1608.22 617.933 1580.5 601.009 1557.4 L 601.176 1676.09 L 568.032 1676.11 L 568.03 1506.25 z" fill="rgb(254,254,254)" transform="translate(0,0)"></path>
<path d="M 1371.69 1506.46 C 1382.75 1506.53 1393.82 1506.51 1404.88 1506.39 C 1423.23 1545.18 1441.12 1584.18 1458.55 1623.38 C 1466.31 1640.76 1473.16 1658.33 1481.54 1675.41 C 1469.26 1675.87 1455.73 1675.7 1443.34 1675.76 L 1428.14 1640.37 C 1422.5 1640.91 1412.48 1640.7 1406.5 1640.74 L 1346.44 1640.94 C 1341.23 1652.39 1336.18 1664.2 1331.12 1675.73 C 1319.26 1676.03 1306.68 1675.81 1294.75 1675.78 C 1319.57 1618.39 1345.9 1563.2 1371.69 1506.46 z" fill="rgb(254,254,254)" transform="translate(0,0)"></path>
<path d="M 1386.97 1544.49 C 1391.05 1548.4 1412.37 1602.7 1417.13 1612.74 L 1390.5 1612.58 L 1358.93 1612.29 C 1368.83 1589.93 1378.18 1567.32 1386.97 1544.49 z" fill="rgb(44,43,43)" transform="translate(0,0)"></path>
<path d="M 810.366 1506.49 C 851.063 1505.32 896.683 1505.97 937.551 1506.31 L 937.591 1537.06 L 845.679 1537.29 L 845.593 1575.85 L 927.964 1575.89 L 927.907 1605.09 L 851.75 1605.45 C 849.301 1605.38 848.937 1605.55 846.508 1606.08 C 844.991 1609.91 845.739 1639.9 845.782 1645.98 C 877.49 1645.84 909.198 1645.98 940.904 1646.38 L 940.908 1676.02 L 809.889 1676.1 C 809.963 1620.54 808.943 1561.69 810.366 1506.49 z" fill="rgb(254,254,254)" transform="translate(0,0)"></path>
<path d="M 383.001 1782.52 C 475.81 1781.18 570.362 1781.99 663.282 1781.96 L 1155.54 1781.9 L 1536.82 1782.31 L 1645.52 1782.76 C 1654.72 1782.79 1697.01 1781.65 1701.92 1784.37 C 1701.98 1788.66 1702.59 1788.08 1700.81 1791.36 C 1693.95 1792.79 1674.66 1791.97 1666.5 1791.85 L 766.145 1791.8 L 485.834 1791.82 L 390.391 1791.38 C 384.115 1791.33 353.961 1792.71 350.04 1789.96 C 349.674 1786.33 349.325 1787.96 350.916 1784.86 C 356.78 1781 374.609 1782.51 383.001 1782.52 z" fill="rgb(176,38,32)" transform="translate(0,0)"></path>
<path d="M 348.876 1745.95 L 1339.73 1746.06 L 1600.05 1746.05 L 1668.96 1746.04 C 1676.26 1746.04 1695.73 1745.51 1701.78 1746.57 C 1703.37 1749.63 1702.67 1749.9 1702.37 1754.01 L 628.726 1754.09 L 427.584 1754.09 C 416.344 1754.09 356.802 1755.09 350.232 1752.91 C 348.539 1750.82 348.918 1748.76 348.876 1745.95 z" fill="rgb(176,38,32)" transform="translate(0,0)"></path>
<path d="M 580.619 1420.34 C 584.484 1419.94 586.747 1419.86 590.634 1419.92 L 596.114 1422.06 C 622.697 1420.89 657.17 1421.97 684.458 1421.96 L 859.294 1421.93 L 1497.07 1422 C 1521.59 1422.02 1693.7 1420.94 1700.47 1423.71 L 1701.11 1425.48 C 1700.11 1426.74 1699.84 1427.62 1698.38 1427.69 C 1682.46 1428.41 1660.92 1428 1645.39 1428.01 L 1469.39 1428.11 L 597.681 1428.15 L 432.044 1428.28 L 375.978 1428.15 C 368.685 1428.13 352.206 1429.51 346.412 1426.61 L 346.494 1423.99 C 351.459 1420.7 365.975 1421.96 372.476 1421.98 L 417.375 1422.03 L 572.571 1421.94 L 580.619 1420.34 z" fill="rgb(254,254,254)" transform="translate(0,0)"></path>
<path d="M 580.619 1420.34 C 584.484 1419.94 586.747 1419.86 590.634 1419.92 L 596.114 1422.06 C 588.266 1421.98 580.419 1421.94 572.571 1421.94 L 580.619 1420.34 z" fill="rgb(110,109,109)" transform="translate(0,0)"></path>
<path d="M 1213.36 1506.54 C 1225.55 1506.06 1237.77 1506.22 1249.98 1506.26 L 1250.67 1614.01 C 1250.76 1633.6 1251.3 1656.36 1250.34 1675.78 C 1238.61 1676.19 1225.13 1675.91 1213.28 1675.94 C 1212.65 1651.62 1213.07 1624.68 1213.05 1600.2 C 1212.9 1568.98 1213 1537.76 1213.36 1506.54 z" fill="rgb(254,254,254)" transform="translate(0,0)"></path>
<path d="M 436.188 1540.4 C 460.354 1537.1 482.587 1554.11 485.729 1578.3 C 488.872 1602.48 471.721 1624.6 447.514 1627.59 C 423.531 1630.54 401.658 1613.59 398.545 1589.62 C 395.432 1565.66 412.245 1543.67 436.188 1540.4 z" fill="rgb(176,38,32)" transform="translate(0,0)"></path>
<path d="M 1603.17 1541.2 C 1626.28 1537.14 1648.37 1552.42 1652.73 1575.48 C 1657.08 1598.54 1642.1 1620.83 1619.1 1625.49 C 1603.95 1628.56 1588.32 1623.24 1578.18 1611.57 C 1568.05 1599.89 1564.98 1583.67 1570.15 1569.1 C 1575.33 1554.53 1587.94 1543.87 1603.17 1541.2 z" fill="rgb(176,38,32)" transform="translate(0,0)"></path>
<path d="M 342.354 1392.07 C 348.619 1391.96 361.094 1390.44 367.155 1392.93 C 369.65 1393.95 369.846 1396.52 370.511 1398.95 C 362.645 1398.88 347.32 1401.07 342.376 1396.57 L 342.354 1392.07 z" fill="rgb(254,254,254)" transform="translate(0,0)"></path>
<path d="M 556.266 918.03 C 562.372 918.216 574.978 922.199 578.389 927.381 C 573.253 927.145 561.043 923.593 556.709 920.683 L 556.266 918.03 z" fill="rgb(254,254,254)" transform="translate(0,0)"></path>
<metadata><recraft-signature>{"signed_by": "recraft", "signature_b64": "rJPXljKrkvBjrumxViKuyHaxLAu7ZlSF1kOsSEuFtB58ofN3QthalpCUhVAuIz1uS/zrkMUPZ52EVulYA6+UCg==", "signing_algo": "Ed25519", "generation_timestamp": 1774384682, "identifier": "ea4ace55-b90a-4a33-9739-10536923a403"}</recraft-signature></metadata></svg>