<svg xmlns="http://www.w3.org/2000/svg" height="1024" preserveAspectRatio="none" style="display: block;" version="1.1" viewBox="0 0 2048 2048" width="1024">
<path d="M 0 0 L 2048 0 L 2048 2048 L 0 2048 L 0 0 z" fill="rgb(10,10,10)" transform="translate(0,0)"></path>
<path d="M 890.315 283.23 C 904.145 281.544 924.71 284.819 938.036 288.781 C 967.946 297.672 990.906 313.759 998.013 345.532 C 999.641 352.809 1000.92 366.887 1004.22 372.92 C 1013.96 377.583 1009.4 382.709 1015.35 386.983 C 1027.83 395.956 1045.11 391.868 1042.79 413.646 C 1041.87 422.276 1037.87 428.408 1030.89 434.136 C 1029.73 438.96 1028.36 443.375 1026.92 448.105 C 1033.12 447.698 1039.22 447.417 1045.3 447.143 C 1120.42 443.755 1168.78 522.155 1194.21 582.731 C 1201.44 599.951 1209.72 617.73 1216.29 636.176 C 1228.96 671.717 1240.86 709.962 1259.93 742.858 C 1264.31 750.413 1273.14 754.718 1279.53 760.975 C 1287.9 769.17 1289.77 782.951 1289.63 794.281 C 1289.47 807.402 1285 814.022 1276.09 822.441 C 1280.18 837.697 1280.16 851.678 1282.88 866.806 C 1296.11 940.444 1330.6 1008.56 1351.13 1080.25 C 1368.38 1075.66 1381.23 1080.52 1384.8 1099.1 C 1437.65 1127.99 1544.62 1205.84 1566.04 1264.42 C 1587.94 1278.35 1631.64 1273.97 1602.39 1316.84 C 1616.22 1331.82 1624.63 1348.41 1631.51 1367.45 C 1645.98 1407.53 1605.76 1416.8 1577.64 1425.74 C 1591.76 1427.16 1618.64 1426.26 1633.33 1426.17 L 1730.19 1425.85 C 1721.06 1441.3 1710.72 1455.43 1701.05 1470.48 L 1593.96 1634.92 C 1583.25 1651.48 1571.85 1666.89 1561.62 1683.88 C 1505.87 1684.94 1447.2 1684.14 1391.24 1684.16 L 1068.1 1684.26 L 301.711 1684.19 C 313.507 1663.97 339.218 1629.95 353.493 1609.47 L 442.97 1479.39 C 455.289 1461.02 467.329 1446.59 479.2 1427.07 L 832.118 1427.77 C 830.09 1422.87 829.556 1419.27 830.13 1414.07 C 834.015 1378.88 880.687 1376.73 905.088 1363.06 C 909.947 1360.34 918.363 1348.48 922.763 1343.92 C 926.516 1340.03 930.283 1337.04 934.512 1333.59 C 919.116 1319.45 911.787 1309.98 918.958 1288.49 C 884.804 1288.97 850.644 1288.81 816.496 1287.99 C 793.533 1322.92 767.681 1359.06 743.998 1394.09 L 502.384 1394.08 C 513.368 1374.99 529.116 1353 541.79 1334.53 C 562.08 1305.08 582.203 1275.52 602.155 1245.84 C 685.189 1121.82 770.798 998.534 850.088 871.874 C 863.498 850.452 873.892 820.457 886.315 797.216 C 872.039 787.822 851.782 775.219 838.843 764.895 C 832.187 771.759 825.834 773.41 820.378 778.433 C 803.98 793.747 796.614 812.402 770.988 813.113 C 735.245 814.104 719.087 795.879 711.042 763.468 C 704.039 735.256 699.08 710.246 697.777 680.992 C 684.53 683.534 674.007 681.355 661.182 678.123 C 644.926 689.969 629.95 701.123 612.717 711.655 C 605.931 716.007 596.497 724.885 589.009 727.742 C 568.181 735.688 542.503 710.772 530.784 696.244 C 514.49 675.768 503.887 645.564 506.376 619.393 C 508.215 600.062 524.767 593.72 539.715 587.283 C 551.455 582.226 562.245 576.39 574.265 571.785 C 578.935 569.997 591.758 559.372 596.545 555.824 C 583.823 510.683 610.528 511.027 640.049 493.039 C 639.57 479.518 640.012 476.155 646.841 464.474 C 637.504 457.903 634.509 454.708 627.596 445.59 C 624.53 447.318 621.417 448.961 618.261 450.516 C 592.153 463.394 497.283 488.84 474.202 451.434 C 464.185 430.271 505.13 407.982 518.542 403.691 C 552.023 392.98 606.195 365.61 639.621 378.931 C 653.946 373.272 680.432 360.128 694.32 366.253 C 709.873 373.112 706.293 388.062 710.432 400.624 C 711.504 403.874 715.349 405.845 718.574 406.58 C 726.372 408.358 727.574 411.68 731.928 418.248 C 733.716 416.307 735.538 409.245 737.455 407.707 C 753.182 395.09 771.617 383.083 787.785 371.189 C 800.503 318.139 838.68 293.402 890.315 283.23 z" fill="rgb(254,253,253)" transform="translate(0,0)"></path>
<path d="M 897.541 293.374 C 930.781 290.871 975.062 307.827 985.706 341.918 C 990.694 357.896 990.449 374.341 1000.54 388.464 C 1007.69 398.465 1023.48 400.924 1031.44 408.016 C 1033.01 414.302 1033.89 418.211 1027.05 420.963 C 1020.41 423.641 1020.23 435.629 1018.05 442.814 C 1015.36 444.278 1012.11 445.672 1009.28 446.97 C 1010.02 453.772 1011.29 459.613 1012.66 466.304 C 1017.13 463.959 1022.06 460.884 1027 459.674 C 1090.34 444.175 1135.52 494.736 1164.42 545.553 C 1196.38 601.767 1214.34 669.763 1239.93 729.128 C 1244.63 738.905 1250.71 748.834 1258.74 756.182 C 1269.63 766.148 1276.99 769.877 1278.73 785.354 C 1281.01 805.693 1276.68 808.619 1260.08 817.074 C 1270.11 834.006 1269.32 851.343 1272.58 870.17 C 1280.48 915.797 1298.26 958.671 1313.61 1002.12 C 1323.05 1028.83 1330.82 1056.51 1342.15 1082.48 C 1344.55 1087.98 1347.24 1090.32 1351.75 1094.16 C 1367.33 1085.45 1373.02 1089.84 1375.38 1106.36 C 1386.64 1111.67 1400.44 1120.65 1411.01 1127.53 C 1458.23 1158.2 1502.08 1193.08 1538.46 1236.3 C 1549.08 1248.93 1552.69 1261.63 1561.43 1274.12 C 1569.22 1283.37 1592.02 1281.72 1599.08 1288.93 C 1606.77 1296.79 1592.94 1310.53 1588.09 1315.02 C 1606.73 1336.11 1618.71 1357.19 1625.16 1384.54 C 1623.57 1388.14 1621.82 1391.66 1619.41 1394.79 C 1606.01 1412.19 1493.75 1442.46 1466.23 1446.45 C 1446.61 1449.28 1396.9 1449.95 1380.79 1437.11 C 1375.06 1432.54 1373.31 1425.3 1372.71 1418.28 C 1369.78 1383.92 1407.2 1389.75 1427.33 1379.46 C 1438.97 1373.51 1450.41 1359.76 1458.7 1349.7 C 1455.45 1344.41 1452.47 1337.26 1449.86 1331.47 C 1428.61 1330.03 1424.8 1313.23 1437.78 1297.9 C 1418.4 1285.88 1406.25 1276.9 1387.85 1264.49 C 1363.55 1248.24 1339.41 1231.77 1315.43 1215.06 C 1309.83 1211.09 1289.45 1193.11 1286.64 1192.1 C 1261.24 1183.02 1244 1176.85 1226.04 1154.69 C 1214.9 1140.96 1204.72 1125.46 1194.83 1109.53 C 1182.25 1089.11 1169.84 1068.58 1157.61 1047.95 C 1149.81 1034.68 1141.24 1019.04 1132.8 1006.4 C 1129.75 1005.06 1131.23 1005.07 1128.22 1006.2 C 1125.31 1014.28 1137.39 1032.94 1141.6 1040.28 C 1161.4 1074.96 1183.33 1111.75 1205.28 1144.72 C 1226.93 1177.24 1245.56 1188.79 1281.17 1200.82 C 1286.31 1204.39 1292.74 1210.08 1297.38 1213.87 C 1329.92 1240.43 1366.24 1261.3 1399.68 1286.42 C 1407.19 1292.06 1413.99 1296.21 1422.07 1300.89 C 1416.61 1327.76 1423.5 1332.33 1444.76 1345.65 C 1439.08 1354.13 1430.39 1365.48 1422.23 1371.54 C 1372.89 1377.9 1327.2 1376.5 1277.53 1375.66 C 1268.79 1364.07 1258.38 1346.9 1250.49 1334.27 C 1233.54 1307.5 1217.26 1280.32 1201.66 1252.74 L 1084.23 1047.5 L 1083.39 1047.18 C 1078.2 1049.38 1044.51 1076.68 1037.11 1081.99 C 1028.83 1087.95 1007.3 1102.81 1000.41 1108.73 C 1015.26 1137.74 1036.78 1167.03 1051.48 1196.52 C 1063.24 1220.13 1070.43 1247.92 1075.11 1273.88 C 1093.9 1293.39 1099.37 1312.34 1076.4 1330.71 C 1078.2 1334.05 1079.85 1337.47 1081.37 1340.95 C 1087.9 1356.37 1098.46 1393.62 1092.03 1409.79 C 1078.84 1421.56 1010.32 1429.75 989.888 1435.82 C 962.53 1442.73 934.84 1447.57 906.561 1445.61 C 881.291 1443.86 849.032 1445.56 840.603 1416.1 C 848.796 1388.01 875.033 1387.45 898.625 1377.98 C 904.434 1375.65 915.097 1368.55 921.021 1364.9 L 921.67 1363.47 C 928.691 1347.65 938.487 1344.52 952.704 1334.67 C 951.882 1334.13 951.062 1333.58 950.246 1333.03 C 931.631 1320.4 918.037 1304.91 933.163 1282.86 C 919.222 1246.7 896.365 1209.15 881.157 1172.99 C 872.622 1152.69 837.646 1101.86 851.503 1080.06 C 892.092 1016.22 946.276 960.537 993.95 902.018 C 995.216 889.687 998.263 885.271 1004.42 874.979 C 988.652 860.428 1002.06 851.445 1006.09 836.737 C 1012.36 813.786 998.46 775.315 988.9 754.716 C 972.849 782.2 946.387 817.353 910.155 798.951 C 888.649 788.027 869.599 773.441 848.844 761.233 C 842.926 757.752 838.097 752.774 831.495 750.444 C 828.653 752.548 829.781 760.531 827.117 762.035 C 806.192 773.844 796.644 802.45 770.692 803.45 C 732.275 804.93 724.523 778.828 717.407 747.93 C 711.325 721.528 707.889 698.342 708.069 671.225 C 690.858 672.656 676.024 673.204 659.938 666.458 C 643.549 679.184 627.723 690.139 610.16 701.141 C 602.918 705.885 595.671 713.381 588.215 717.438 C 577.143 723.12 564.163 713.866 555.654 706.905 C 530.388 686.235 510.663 649.713 517.485 616.53 C 519.613 606.177 535.013 601.464 543.395 597.357 C 551.606 593.334 560.217 588.539 568.456 584.454 C 571.546 583.189 577.025 584.634 579.714 582.541 C 591.427 573.421 599.872 566.434 613.565 560.056 C 593.19 526.452 603.898 521.641 632.114 508.953 C 641.327 504.811 656.498 494.752 666.086 489.514 C 661.333 489.437 654.076 490.011 650.663 487.102 C 649.291 483.085 650.396 476.839 654.484 474.787 C 655.832 476.104 657.197 477.405 658.577 478.69 C 663.946 479.233 673.38 477.366 679.065 476.479 C 672.467 474.34 668.599 472.905 662.28 470.074 C 661.088 467.626 659.768 464.254 658.679 461.677 C 646.116 454.516 643.059 449.125 635.332 437.24 C 643.123 423.483 650.966 414.593 664.337 405.885 C 669.359 402.615 683.394 393.52 683.478 387.571 L 681.594 386.752 C 672.283 388.253 649.985 398.966 641.284 403.909 C 631.949 423.677 623.085 438.131 601.468 446.309 C 575.695 456.058 518.171 466.429 493.225 454.412 C 489.687 452.707 485.731 449.819 484.718 445.806 C 483.807 442.194 485.373 438.694 487.423 435.805 C 501.08 416.559 585.434 389.613 610.377 386.016 C 620.978 384.487 630.247 386.148 638.911 392.574 C 648.293 388.532 692.871 361.956 697.4 382.056 C 700.307 394.956 697.115 401.019 705.147 415.469 C 710.887 414.337 719.344 413.204 720.3 421.458 C 717.052 429.594 720.736 434.001 724.308 443.238 C 744.075 438.191 729.836 465.432 765.357 443.444 C 758.351 442.63 743.147 441.961 739.939 436.122 C 729.593 417.294 786.392 385.52 797.846 378.085 C 800.802 358.485 805.403 348.309 817.642 332.209 C 833.878 310.851 871.616 296.047 897.541 293.374 z" fill="rgb(10,10,10)" transform="translate(0,0)"></path>
<path d="M 1072.53 490.387 C 1103.94 487.734 1115.04 496.944 1133.62 520.79 C 1187.29 589.7 1198.4 679.575 1239.93 754.324 C 1243.89 761.435 1257.34 770.31 1264.25 775.753 C 1267.23 784.466 1267.12 789.58 1267.23 798.614 C 1245.35 815.762 1175.18 844.545 1147.13 850.857 C 1124.29 854.096 1100.48 854.602 1077.44 856.115 C 1061.65 857.153 1022.77 871.128 1010.27 862.146 C 1007.78 857.34 1015.86 842.977 1017.85 835.634 C 1024.99 809.258 1008.66 765.601 996.419 742.817 L 1000.71 735.907 C 1014.64 716.593 1029.61 734.99 1036.51 703.583 C 1066.77 695.728 1090.44 688.668 1114.13 667.81 C 1087.71 675.448 1064.33 687.613 1038.29 693.995 L 1043.59 672.964 C 1067.79 667.687 1089.53 655.468 1105.35 636.262 C 1086.4 642.498 1069.84 655.311 1045.62 662.69 C 1047.9 652.25 1049.85 643.465 1052.87 633.177 C 1085.36 615.114 1101.23 571.557 1080.97 538.556 C 1081.6 573.226 1080.83 590.836 1056.7 616.45 C 1060.67 571.763 1053.6 524.769 1001.28 515.889 C 1023.5 501.724 1046.28 493.007 1072.53 490.387 z" fill="rgb(254,253,253)" transform="translate(0,0)"></path>
<path d="M 1247.12 779.071 L 1248.03 779.619 L 1248.27 781 C 1244.59 784.917 1237.53 792.013 1233.21 794.831 C 1194.61 820.015 1113.28 833.479 1070.01 826.817 L 1067.35 826.532 C 1068.97 825.444 1087.61 823.622 1090.84 823.2 C 1130.78 817.997 1171.65 813.007 1209.03 797.15 C 1221.09 792.032 1234.75 782.423 1247.12 779.071 z" fill="rgb(10,10,10)" transform="translate(0,0)"></path>
<path d="M 1208.93 841.935 C 1211.78 842.707 1210.54 844.495 1210.83 848.324 C 1212.47 869.699 1215.06 897.331 1220.9 917.703 C 1234.25 964.272 1253.93 1010.02 1274.89 1053.6 C 1285.66 1076.01 1294.27 1097.08 1308.88 1117.28 C 1301.61 1125.28 1289.24 1141.54 1282.89 1150.39 C 1306.03 1136.72 1320.04 1117.95 1336.09 1097.02 C 1338.02 1099.41 1340.19 1102.56 1342.04 1105.07 C 1333.74 1115.56 1327.98 1128.14 1318.55 1139.26 C 1313.34 1145.4 1301.12 1156.24 1298.45 1161.33 L 1299.11 1162.91 C 1312.18 1163.86 1330.06 1141.63 1337.51 1132.33 C 1382.5 1146.25 1482.86 1244.11 1511.62 1282.33 C 1505.36 1278.71 1500.93 1276.48 1494.36 1273.44 C 1479.85 1278.07 1464.03 1285.49 1450.02 1291.73 C 1427.3 1277.39 1409.55 1265.3 1387.47 1250.12 C 1355.55 1229.75 1325.79 1207.13 1295.45 1184.66 C 1281.25 1174.15 1259.46 1172.87 1245.12 1157.65 C 1227.89 1139.36 1215.33 1119.9 1202.19 1098.59 C 1169.51 1045.21 1140.27 989.147 1102.45 939.115 C 1097.21 932.176 1080.66 925.169 1072.65 919.923 C 1064.36 914.495 1060.33 911.589 1052.88 904.586 C 1067.29 909.134 1076.57 913.342 1089.38 902.731 C 1115.12 904.534 1140.31 905.782 1166.17 904.53 C 1169.16 921.396 1178.5 940.029 1176.74 956.164 C 1175.01 972.107 1154.29 980.119 1140.72 974.549 C 1138.31 973.559 1135.68 974.324 1133.62 975.686 L 1133.7 977.99 C 1146.29 995.673 1179.03 985.559 1187.05 965.267 C 1188.9 960.578 1189.74 955.553 1189.52 950.518 C 1189.22 941.601 1179.36 900.585 1175.59 892.41 L 1161.09 893.017 C 1162.43 881.312 1162.85 870.789 1164.89 858.964 C 1179.71 853.678 1194.4 848 1208.93 841.935 z" fill="rgb(254,253,253)" transform="translate(0,0)"></path>
<path d="M 1045.5 874.422 L 1049.14 874.073 L 1050.05 875.204 C 1048.86 881.801 1041.07 897.333 1040.66 900.012 C 1037.9 918.176 1082.4 934.987 1093.28 944.298 C 1099.53 949.646 1105.63 959.409 1109.8 966.111 C 1071.2 954.089 1044.09 950.889 1004.58 959.209 C 1020.22 965.156 1067.2 972.686 1084.86 975.476 C 1070.36 984.909 1057.76 995.853 1044.12 1006.38 C 1010.92 1031.98 979.926 1053.86 953.462 1086.85 C 941.325 1081 925.623 1075.65 912.699 1070.32 C 923.779 1086.31 941.376 1094.26 958.084 1103.27 C 951.898 1106.61 933.39 1112.42 931.524 1119.54 C 935.883 1122.74 948.788 1119.28 954.321 1118.23 C 956.235 1123.01 964.801 1136.51 967.916 1141.68 C 974.858 1153.19 981.629 1164.8 988.228 1176.51 C 1010.14 1215.13 1022.93 1246.3 1032.75 1289.93 C 1002.72 1289.97 974.544 1288.16 945.845 1277.99 C 942.557 1269.05 932.142 1248.42 927.753 1239.01 C 915.381 1212.18 902.724 1185.49 889.783 1158.93 C 855.673 1089.64 846.122 1101.74 896.04 1038.64 C 915.507 1013.68 935.588 989.212 956.263 965.246 C 969.81 949.57 985.774 932.429 998.378 916.409 C 1009.37 902.439 1004.45 893.295 1019.47 876.141 C 1028.31 876.022 1036.71 875.193 1045.5 874.422 z" fill="rgb(254,253,253)" transform="translate(0,0)"></path>
<path d="M 993.47 527.179 C 1040.8 522.339 1052.06 580.492 1045.26 616.012 C 1041.23 637 1033.65 657.217 1029.38 678.26 C 1010.58 687.126 996.046 688.063 975.76 686.882 C 953.06 683.095 941.24 678.71 922.185 666.215 C 927.092 646.187 934.403 624.205 940.898 604.507 C 950.053 576.747 963.6 538.081 993.47 527.179 z" fill="rgb(254,253,253)" transform="translate(0,0)"></path>
<path d="M 659.713 577.642 C 670.324 580.703 710.487 604.481 715.263 611.822 C 745.314 658.003 793.317 675.544 841.317 698.066 C 856.933 705.394 880.066 710.784 896.715 718.206 C 912.81 725.38 928.915 733.193 946.028 739.979 C 937.083 731.716 935.143 729.716 929.654 718.934 C 953.465 730.858 961.898 733.349 988.388 732.905 C 977.262 747.876 972.239 763.155 958.34 776.708 C 949.459 784.481 940.552 789.909 929.448 793.742 C 905.361 786.592 891.457 771.488 870.625 758.988 C 821.521 729.525 775.31 694.125 725.312 666.443 C 706.028 655.766 682.601 668.267 663.428 658.216 C 661.52 657.216 661.263 655.293 661.318 653.575 C 664.637 652.109 668.852 654.317 669.936 653.934 C 676.323 651.674 695.196 634.259 699.242 630.088 L 699.98 629.313 C 688.901 613.344 669.873 604.579 660.013 587.534 C 657.705 583.544 658.395 581.792 659.713 577.642 z" fill="rgb(254,253,253)" transform="translate(0,0)"></path>
<path d="M 1222.51 866.025 C 1236.09 870.364 1246.58 873.459 1260.59 875.839 C 1270.86 917.197 1282.31 950.73 1296.77 990.889 C 1308.14 1022.45 1318.16 1053.83 1330.74 1085.11 L 1322.44 1098.81 C 1320.24 1102.1 1317.12 1106.06 1314.7 1109.3 C 1305.51 1095.24 1292.47 1068.78 1285.38 1053.18 C 1259.82 996.979 1226.08 927.801 1222.51 866.025 z" fill="rgb(254,253,253)" transform="translate(0,0)"></path>
<path d="M 950.761 396.713 C 962.67 406.187 955.385 423.996 948.571 434.31 C 955.35 443.346 962.973 458.099 957.463 469.228 C 947.374 489.606 927.632 509.42 906.5 518.169 C 897.832 521.758 875.183 522.739 866.594 519.17 L 866.065 517.706 L 866.628 516.629 C 870.897 513.28 875.858 512.286 881.141 510.675 C 874.749 509.874 867.458 509.493 860.737 508.712 C 858.878 507.393 857.183 505.994 855.411 504.567 L 855.296 502.925 C 857.349 501.14 859.442 499.401 861.572 497.709 C 862.63 493.718 862.974 495.366 861.883 492.14 C 857.599 491 849.731 494.865 845.669 494.944 C 843.986 495.922 837.204 492.942 837.459 491.46 C 839.631 478.845 845.042 469.545 845.211 456.243 C 856.897 449.954 865.629 446.106 878.643 443.344 C 883.735 442.263 898.59 439.395 901.168 436.182 L 900.791 434.41 C 897.792 432.091 894.725 431.895 890.944 431.121 C 891.75 430.003 904.725 418.811 907.261 416.409 C 909.902 421.248 914.633 428.284 918.685 431.901 C 936.113 447.458 938.572 409.823 950.761 396.713 z" fill="rgb(254,253,253)" transform="translate(0,0)"></path>
<path d="M 948.974 411.584 L 951.228 412.767 C 953.26 415.954 952.803 414.253 952.605 418.062 C 950.362 422.282 949.958 422.379 945.987 425.298 L 943.818 424.179 C 942.982 419.162 946.051 415.897 948.974 411.584 z" fill="rgb(10,10,10)" transform="translate(0,0)"></path>
<path d="M 871.489 448.753 C 873.182 448.893 874.311 449.167 875.976 449.492 L 876.956 450.997 C 874.941 454.492 874.832 453.751 870.87 456.167 C 868.651 456.125 868.141 455.96 865.951 455.481 L 865.116 454.048 C 866.426 451.082 868.579 450.388 871.489 448.753 z" fill="rgb(10,10,10)" transform="translate(0,0)"></path>
<path d="M 777.736 466.1 C 809.787 466.176 812.988 514.403 820.679 534.535 C 835.723 573.918 818.649 573.066 789.872 592.869 C 786.17 595.416 781.908 599.232 777.825 601.211 L 776.787 600.197 L 776.986 592.734 C 773.801 550.015 756.531 517.213 717.615 497.779 C 737.778 487.493 756.853 473.801 777.736 466.1 z" fill="rgb(254,253,253)" transform="translate(0,0)"></path>
<path d="M 714.1 499.926 C 750.926 509.417 778.047 572.262 768.54 607.632 C 761.098 612.329 748.851 619.11 741.024 622.712 C 738.211 621.479 737.943 619.994 735.842 617.029 C 730.37 609.282 726.912 605.483 720.377 598.484 C 713.604 563.967 701.359 544.101 673.13 523.194 C 686.426 515.465 700.362 506.256 714.1 499.926 z" fill="rgb(254,253,253)" transform="translate(0,0)"></path>
<path d="M 1109.87 973.146 L 1111.39 972.865 C 1115.71 975.141 1122.36 989.296 1125.14 994.533 C 1110.3 1012.15 1001.19 1099.68 979.275 1101.79 L 977.078 1101.51 C 972.837 1096.85 968.551 1092.89 963.969 1088.58 C 985.557 1062.26 1026.74 1032.98 1053.7 1011.49 C 1066.96 1000.92 1079.88 988.87 1093.79 979.406 C 1098.92 975.915 1103.93 974.799 1109.87 973.146 z" fill="rgb(254,253,253)" transform="translate(0,0)"></path>
<path d="M 871.566 307.78 C 872.734 307.673 872.82 307.945 874.102 308.464 C 891.843 329.284 903.51 372.718 904.351 399.879 C 885.356 399.889 871.108 398.32 852.785 394.131 C 846.284 392.408 814.874 385.163 812.314 378.846 C 808.687 369.897 821.956 347.902 827.573 340.26 C 839.241 324.388 854.059 315.982 871.566 307.78 z" fill="rgb(254,253,253)" transform="translate(0,0)"></path>
<path d="M 1369.81 1117.86 C 1375.99 1117.85 1384.54 1124.94 1389.73 1128.27 C 1442.06 1161.86 1494.96 1199.09 1532.61 1249.39 C 1538.78 1257.62 1544.33 1270.46 1548.93 1280.08 C 1543.04 1280.05 1538.06 1279.33 1532.25 1278.63 C 1528.48 1277.72 1523.61 1276.93 1519.72 1276.18 C 1509.47 1266.76 1491.36 1244.12 1480.4 1232.6 C 1448.31 1198.85 1393.84 1146.34 1352.63 1125.41 C 1358.2 1123.13 1364.24 1120.31 1369.81 1117.86 z" fill="rgb(254,253,253)" transform="translate(0,0)"></path>
<path d="M 730.38 682.61 C 746.469 691.367 765.77 706.97 781.075 717.748 C 796.864 728.867 811.108 737.742 827.655 747.938 C 824.673 755.988 823.789 756.488 817.182 762.015 C 811.906 766.257 805.7 770.257 800.971 774.773 C 797.125 778.134 792.514 782.368 788.597 785.491 C 777.762 792.228 765.049 795.273 754.503 786.253 C 740.483 774.263 739.244 746.836 736.499 729.619 C 734.039 714.187 731.692 697.823 730.38 682.61 z" fill="rgb(10,10,10)" transform="translate(0,0)"></path>
<path d="M 730.38 682.61 C 746.469 691.367 765.77 706.97 781.075 717.748 C 796.864 728.867 811.108 737.742 827.655 747.938 C 824.673 755.988 823.789 756.488 817.182 762.015 L 815.49 761.259 C 818.361 758.321 818.904 758.766 819.449 755.493 C 814.795 751.272 795.162 739.427 788.474 735.064 C 772.513 724.546 756.947 713.44 741.807 701.769 C 746.276 727.028 746.127 798.831 787.683 783.564 L 788.597 785.491 C 777.762 792.228 765.049 795.273 754.503 786.253 C 740.483 774.263 739.244 746.836 736.499 729.619 C 734.039 714.187 731.692 697.823 730.38 682.61 z" fill="rgb(254,253,253)" transform="translate(0,0)"></path>
<path d="M 800.068 773.162 C 803.62 768.961 810.8 764.15 815.49 761.259 L 817.182 762.015 C 811.906 766.257 805.7 770.257 800.971 774.773 L 800.068 773.162 z" fill="rgb(83,83,87)" transform="translate(0,0)"></path>
<path d="M 787.683 783.564 C 789.184 781.777 798.116 774.607 800.068 773.162 L 800.971 774.773 C 797.125 778.134 792.514 782.368 788.597 785.491 L 787.683 783.564 z" fill="rgb(254,253,253)" transform="translate(0,0)"></path>
<path d="M 887.184 303.192 C 895.57 302.388 904.021 302.544 912.371 303.655 C 932.065 306.348 954.361 314.844 966.436 331.302 C 972.453 339.503 978.347 351.321 976.902 361.595 C 973.881 367.225 953.81 377.233 946.985 381.135 C 932.898 389.745 923.981 395.378 908.122 399.627 C 912.463 369.616 909.993 352.346 892.867 325.389 C 889.018 319.331 881.587 312.597 878.686 306.465 C 881.254 304.046 883.359 304.145 887.184 303.192 z" fill="rgb(254,253,253)" transform="translate(0,0)"></path>
<path d="M 800.562 387.752 C 840.636 405.298 860.319 408.106 903.666 406.905 C 884.924 425.455 876.056 431.78 852.05 442.316 C 847.49 443.958 841.416 445.61 836.613 446.286 C 829.592 447.302 822.449 447.119 815.488 445.748 C 802.68 443.326 788.688 436.15 775.433 432.804 C 768.534 431.062 757.65 431.416 753.889 428.622 L 753.522 426.109 C 757.094 419.638 792.523 393.891 800.562 387.752 z" fill="rgb(254,253,253)" transform="translate(0,0)"></path>
<path d="M 827.26 502.854 C 838.773 505.424 846.846 504.653 849.687 517.637 C 855.637 523.162 861.35 527.789 867.663 532.914 C 872.06 532.712 881.118 531.8 885.14 532.452 C 897.227 534.411 916.019 559.416 928.185 551.597 C 930.086 548.342 929.923 548.41 930.118 544.835 C 926.573 539.361 918.295 531.569 913.436 526.654 C 921.468 522.811 926.717 519.794 934.369 515.159 C 935.345 525.259 935.798 527.849 941.094 536.412 C 935.579 545.439 935.946 548.739 934.88 559.234 C 932.234 581.628 927.463 601.117 921.928 622.879 C 912.268 612.607 903.987 606.195 894.708 594.656 C 879.095 575.238 867.191 554.498 853.408 534.459 C 846.821 524.883 835.641 514.586 827.26 502.854 z" fill="rgb(254,253,253)" transform="translate(0,0)"></path>
<path d="M 870.07 541.477 C 875.767 540.922 881.18 541.122 886.896 541.187 C 904.089 551.421 899.016 557.974 925.595 562.666 C 923.343 575.265 920.669 588.193 918.228 600.792 L 916.642 604.27 C 909.844 601.321 876.289 553.91 870.143 544.692 C 869.129 543.17 869.533 543.67 870.07 541.477 z" fill="rgb(10,10,10)" transform="translate(0,0)"></path>
<path d="M 978.19 1115.47 L 989.377 1114.94 C 1012.68 1161.53 1062.51 1220.12 1061.12 1278.86 C 1061.06 1281.57 1049.94 1285.22 1047.22 1286.22 C 1046.14 1286.6 1045.35 1286.52 1044.15 1286.6 C 1042.18 1284.52 1028.08 1239.15 1025.19 1230.67 C 1010.77 1188.3 987.027 1154.35 964.335 1116.35 L 978.19 1115.47 z" fill="rgb(254,253,253)" transform="translate(0,0)"></path>
<path d="M 832.493 529.781 C 856.944 546.066 877.633 605.823 903.947 626.581 C 908.734 630.358 913.027 632.695 918.279 635.707 C 914.223 648.054 910.906 658.062 908.29 670.83 L 907.402 673.595 L 905.934 673.612 C 896.585 663.448 872.583 640.818 866.637 630.346 C 856.736 612.909 847.523 593.809 836.173 576.035 C 839.54 570.755 840.405 568.397 842.659 562.727 C 840.349 549.76 837.171 541.992 832.493 529.781 z" fill="rgb(254,253,253)" transform="translate(0,0)"></path>
<path d="M 1607.06 1370.02 C 1607.72 1370.43 1608.67 1371.28 1608.94 1371.98 C 1613.29 1383.26 1611.2 1390.3 1599.92 1395.38 C 1580.32 1403.9 1559.27 1408.92 1538.78 1414.77 C 1504.57 1424.53 1470.49 1437.44 1434.29 1435.55 C 1419 1434.75 1405.59 1433.12 1391.27 1427.86 C 1388.27 1424.43 1386.06 1421.47 1387 1416.68 C 1388.5 1415.44 1390.22 1414.46 1392.09 1415.26 C 1409.34 1422.67 1426.98 1423.61 1445.57 1423.28 C 1452.84 1423.15 1460.1 1421.83 1467.62 1420.87 C 1494.63 1417.44 1518.12 1403.83 1543.26 1394.46 C 1564.52 1386.47 1586 1378.74 1607.06 1370.02 z" fill="rgb(254,253,253)" transform="translate(0,0)"></path>
<path d="M 1078.92 1385.31 C 1081.95 1389.21 1082.24 1398.15 1079.42 1402.53 C 1071.8 1407.14 1046.49 1411.47 1037.48 1413.47 C 1001.08 1421.54 885.114 1447.64 855.562 1420.04 C 854.635 1416.85 854.33 1413.72 855.838 1410.72 C 861.492 1407.34 868.485 1412.14 874.887 1413.71 C 888.336 1417.01 906.651 1423.06 920.388 1422.58 C 946.941 1421.67 974.201 1410.43 1000.27 1404.96 C 1027.33 1399.13 1052.47 1392.51 1078.92 1385.31 z" fill="rgb(254,253,253)" transform="translate(0,0)"></path>
<path d="M 947.259 1290.95 C 962.248 1291.26 982.287 1297.65 998.861 1298.81 C 1023.02 1300.5 1058.17 1290.35 1052.33 1326.9 C 1050.05 1329.33 1050.28 1328.54 1045.89 1329 C 1027.1 1331.73 929.8 1331.68 939.982 1295.94 C 942.301 1292.7 943.613 1292.51 947.259 1290.95 z" fill="rgb(254,253,253)" transform="translate(0,0)"></path>
<path d="M 1489.8 1287.03 C 1498.42 1286.26 1502.23 1288.61 1510.29 1291.86 C 1535.18 1287.47 1561.31 1294.13 1586.93 1296.3 C 1569.9 1318.15 1565.67 1315.97 1539.62 1316.75 C 1525.67 1316.62 1511.72 1316.36 1497.78 1315.96 C 1488.69 1315.61 1479.58 1314.95 1470.49 1314.76 C 1461.5 1314.56 1450.49 1320.86 1442.51 1315.32 C 1438.96 1305.55 1481.23 1290.71 1489.8 1287.03 z" fill="rgb(254,253,253)" transform="translate(0,0)"></path>
<path d="M 821.716 586.419 C 831.254 593.052 849.875 628.32 856.749 638.166 C 869.532 656.474 888.713 670.694 903.81 685.743 C 903.695 699.598 903.533 699.665 913.504 709.151 C 871.449 695.772 845.621 692.785 805.062 669.448 C 813.262 652.618 812.888 647.143 811.852 628.826 C 811.278 623.617 808.297 597.666 811.597 595.376 C 816.755 600.029 820.423 645.047 819.577 654.008 C 819.216 657.828 817.803 662.264 816.376 665.912 C 827.668 671.339 886.478 695.071 895.042 693.328 C 895.633 691.428 895.239 690.158 893.33 688.696 C 860.598 663.63 837.21 628.891 819.854 592.081 C 818.757 589.756 820.421 588.379 821.716 586.419 z" fill="rgb(254,253,253)" transform="translate(0,0)"></path>
<path d="M 918.965 676.316 C 921.78 678.095 924.619 679.835 927.481 681.536 C 963.25 702.637 989.021 701.768 1026.92 691.842 C 1025.39 698.177 1024.44 704.723 1023.37 711.165 C 1003.92 718.171 983.39 722.76 962.749 718.831 C 946.732 715.781 925.617 706.619 916.114 692.995 C 916.79 686.459 917.54 682.74 918.965 676.316 z" fill="rgb(254,253,253)" transform="translate(0,0)"></path>
<path d="M 549.495 623.838 C 571.211 628.455 595.579 688.007 569.908 693.963 C 558.178 691.426 548.743 680.642 543.975 670.081 C 536.65 653.854 530.248 633.61 549.495 623.838 z" fill="rgb(254,253,253)" transform="translate(0,0)"></path>
<path d="M 1042.69 470.333 C 1058.48 467.877 1074.62 471.418 1088.48 479.136 C 1084.86 479.012 1081.24 478.939 1077.61 478.917 C 1036.31 478.827 994.473 503.175 965.735 531.685 C 956.39 541.55 952.666 549.189 945.991 560.88 C 956.976 514.262 994.723 477.024 1042.69 470.333 z" fill="rgb(254,253,253)" transform="translate(0,0)"></path>
<path d="M 1149.56 862.38 L 1153.06 861.952 L 1154.42 863.236 C 1155.37 870.416 1152.86 884.474 1151.73 892.331 C 1133.06 892.324 1114.4 891.874 1095.75 890.979 L 1091.37 890.693 C 1088.32 886.491 1092.24 873.709 1093.31 866.807 C 1112.12 866.276 1130.89 864.799 1149.56 862.38 z" fill="rgb(254,253,253)" transform="translate(0,0)"></path>
<path d="M 599.815 589.712 C 626.783 593.44 643.899 621.301 647.506 646.285 L 632.96 659.324 C 631.444 660.655 632.376 660.059 630.029 660.88 C 628.908 658.269 629.078 657.496 628.353 654.912 C 621.695 631.21 607.707 611.24 586.836 598.235 C 591.445 594.532 594.784 592.666 599.815 589.712 z" fill="rgb(254,253,253)" transform="translate(0,0)"></path>
<path d="M 795.042 606.021 C 796.057 629.213 800.531 636.877 792.348 661.158 C 784.197 657.089 776.192 652.735 768.347 648.104 C 763.822 645.221 754.045 639.836 752.305 634.943 C 755.036 627.379 784.78 613.305 793.787 606.921 L 795.042 606.021 z" fill="rgb(254,253,253)" transform="translate(0,0)"></path>
<path d="M 784.637 623.961 L 786.394 624.151 C 789.03 629.439 787.701 640.972 787.31 647.057 L 774.684 640.964 C 771.564 639.344 767.944 636.891 764.929 634.97 C 771.604 629.924 777.148 627.484 784.637 623.961 z" fill="rgb(10,10,10)" transform="translate(0,0)"></path>
<path d="M 575.842 608.733 C 593.733 611.051 610.344 640.582 614.975 655.933 C 617.943 665.772 616.195 671.277 618.078 678.567 C 616.698 681.171 612.351 683.191 609.418 685.014 C 607.574 685.661 605.561 686.314 605.115 685.397 C 603.243 681.552 600.232 663.525 599.101 660.364 C 592.447 641.765 580.031 627.692 565.621 614.842 L 575.842 608.733 z" fill="rgb(254,253,253)" transform="translate(0,0)"></path>
<path d="M 1577.7 1321.36 C 1581.72 1324.96 1584.51 1329.1 1587.76 1333.42 C 1568.82 1337.58 1559.57 1340.75 1562.14 1361.8 C 1556.82 1356.03 1551.17 1350.6 1545.56 1345.11 C 1537.4 1338.56 1526.76 1332.04 1517.86 1326.25 C 1541.54 1326.37 1555.01 1327.69 1577.7 1321.36 z" fill="rgb(254,253,253)" transform="translate(0,0)"></path>
<path d="M 1064.18 1336.23 L 1065.89 1336.91 C 1066.69 1339.48 1067.02 1340.16 1065.58 1342.85 C 1054.35 1363.94 1043.2 1368.37 1021.16 1354.62 C 1015.77 1349.98 1013.31 1345.9 1009.69 1340.04 C 1029.45 1341.82 1045.01 1340.68 1064.18 1336.23 z" fill="rgb(254,253,253)" transform="translate(0,0)"></path>
<path d="M 1503.65 1332.92 C 1521.1 1334.01 1554.94 1360.05 1562.43 1375.12 L 1560.99 1376.61 C 1557.05 1377.72 1556.6 1378.65 1553.75 1377.36 C 1536.02 1357.72 1513.99 1348.86 1489.84 1339.84 C 1494.44 1337.09 1498.82 1335.16 1503.65 1332.92 z" fill="rgb(254,253,253)" transform="translate(0,0)"></path>
<path d="M 967.226 464.713 C 969.801 477.86 968.799 466.855 980.979 475.86 C 986.501 476.382 990.485 470.682 995.559 466.755 C 999.098 466.432 997.46 466.009 1000.5 468.537 C 1000.4 470.581 1000.39 471.398 998.398 472.702 C 987.581 479.778 978.847 487.01 969.473 495.957 C 961.054 504.154 954.459 513.501 947.513 522.92 C 948.186 495.322 961.179 492.365 967.226 464.713 z" fill="rgb(254,253,253)" transform="translate(0,0)"></path>
<path d="M 630.075 574.171 C 634.848 574.475 643.518 575.124 646.302 580.368 C 648.017 583.599 647.565 589.738 649.571 593.599 C 653.593 601.344 667.955 619.313 665.447 627.943 C 662.76 630.194 662.685 630.6 659.203 631.372 L 657.736 629.64 C 647.989 603.892 641.301 593.818 616.399 581.694 C 622.039 577.954 623.896 576.94 630.075 574.171 z" fill="rgb(254,253,253)" transform="translate(0,0)"></path>
<path d="M 1249.12 823.948 C 1257.32 830.041 1257.1 847.288 1257.58 856.553 C 1248.94 854.979 1242.02 853.465 1233.51 851.286 C 1227.55 849.19 1220.71 847.828 1220.87 840.381 C 1224.73 833.673 1241 827.723 1249.12 823.948 z" fill="rgb(254,253,253)" transform="translate(0,0)"></path>
<path d="M 976.226 1337.52 C 985.816 1336.33 989.779 1336.8 998.884 1338.47 C 1003.55 1346.64 1008.87 1353.22 1014.51 1360.71 L 1013.71 1362.68 C 994.135 1369.02 986.899 1360.31 977.152 1343.39 C 977.304 1343.65 976.279 1337.83 976.226 1337.52 z" fill="rgb(254,253,253)" transform="translate(0,0)"></path>
<path d="M 736.522 462.862 C 740.643 463.137 740.152 462.474 742.987 464.516 L 743.353 466.802 C 741.776 470.484 741.844 470.279 738.668 472.799 C 726.437 467.461 725.792 471.446 715.058 478.301 C 704.263 485.195 694.447 493.994 683.742 500.972 C 675.237 506.401 666.369 511.238 657.2 515.449 C 651.505 514.668 645.66 514.013 639.942 513.314 C 647.12 510.312 654.315 507.354 661.462 504.258 C 687.505 492.974 711.308 475.256 736.522 462.862 z" fill="rgb(254,253,253)" transform="translate(0,0)"></path>
<path d="M 615.23 529.151 C 619.476 524.805 622.52 522.925 628.901 522.863 C 647.89 522.511 666.159 530.129 679.273 543.867 C 691.471 556.526 702.908 577.105 706.526 594.332 L 705.562 593.195 C 701.618 588.481 691.049 572.44 689.085 566.885 C 681.356 545.031 639.14 513.002 616.598 529.742 L 615.23 529.151 z" fill="rgb(254,253,253)" transform="translate(0,0)"></path>
<path d="M 1069.66 1289.12 C 1072.13 1292.41 1077.41 1305.26 1078.95 1309.58 C 1073.19 1316.95 1070.24 1319.12 1062.59 1323.78 C 1061.6 1310.61 1060.04 1306.59 1052.81 1295.88 C 1057.75 1294.25 1064.66 1291.18 1069.66 1289.12 z" fill="rgb(254,253,253)" transform="translate(0,0)"></path>
<path d="M 624.14 534.568 C 626.088 534.613 628.034 534.743 629.971 534.956 C 652.315 537.386 661.434 548.172 674.209 564.042 L 673.9 564.79 C 664.606 560.044 656.99 551.853 647.699 548.943 C 643.596 547.658 634.994 552.208 631.268 550.904 C 627.72 545.618 626.292 540.561 624.14 534.568 z" fill="rgb(254,253,253)" transform="translate(0,0)"></path>
<path d="M 708.133 437.217 C 709.035 438.168 713.369 445.525 714.342 447.122 C 704.253 452.648 699.059 455.905 690.621 463.638 L 690.903 463.387 L 689.288 463.965 C 686.118 463.066 684.605 463.402 681.246 463.442 C 676.688 462.775 678.408 463.756 675.36 461.316 L 675.337 459.38 C 680.227 452.905 700.348 441.875 708.133 437.217 z" fill="rgb(254,253,253)" transform="translate(0,0)"></path>
<path d="M 955.562 1360.44 C 963.601 1362.75 983.41 1388.58 988.541 1396.64 L 987.756 1398.41 C 984.986 1398.75 984.882 1398.72 982.095 1398.4 C 972.026 1391.93 962.407 1376.39 955.948 1366.36 C 953.957 1363.27 954.602 1363.6 955.562 1360.44 z" fill="rgb(254,253,253)" transform="translate(0,0)"></path>
<path d="M 1482.84 1348.89 C 1497.01 1349.12 1541.1 1370.59 1543.2 1383.81 C 1542.49 1383.98 1538.36 1384.76 1538.11 1384.54 C 1521.09 1369.42 1502.85 1359.42 1482.84 1348.89 z" fill="rgb(254,253,253)" transform="translate(0,0)"></path>
<path d="M 692.016 419.992 C 692.21 421.04 692.665 423.501 692.238 424.362 C 688.184 432.545 665.42 443.649 658.175 446.875 C 656.092 444.254 653.951 441.204 651.946 438.482 C 650.635 434.323 650.265 431.79 654.052 429.345 C 664.58 440.694 670.12 434.435 681.112 427.406 C 684.779 425.061 688.419 422.454 692.016 419.992 z" fill="rgb(254,253,253)" transform="translate(0,0)"></path>
<path d="M 1067.2 869.299 C 1070.64 868.987 1070.81 868.921 1074.41 869.419 C 1074.89 873.044 1070.38 896.132 1068.86 899.883 L 1066.79 899.976 C 1063.67 898.877 1060.77 898.243 1058.45 895.985 C 1059.07 890.583 1063.09 872.893 1067.2 869.299 z" fill="rgb(254,253,253)" transform="translate(0,0)"></path>
<path d="M 975.099 1356.4 C 978.895 1358.95 1004.89 1391.56 1005.33 1394.62 L 999.325 1395.55 C 992.813 1392.61 974.112 1365.16 975.099 1356.4 z" fill="rgb(254,253,253)" transform="translate(0,0)"></path>
<path d="M 778.987 446.765 C 787.645 447.376 813.2 457.993 817.329 465.381 L 816.624 467.285 C 813.834 469.256 814.016 469.107 810.629 469.721 L 808.979 468.313 C 794.924 453.96 785.514 448.47 766.57 457.404 L 778.987 446.765 z" fill="rgb(254,253,253)" transform="translate(0,0)"></path>
<path d="M 887.061 1395.06 L 888.442 1394.8 C 892.304 1395.64 903.297 1408.98 906.448 1412.51 L 893.777 1409.19 C 885.061 1407.01 876.937 1405.18 868.533 1401.92 C 874.455 1399.12 880.84 1397.17 887.061 1395.06 z" fill="rgb(254,253,253)" transform="translate(0,0)"></path>
<path d="M 1478.62 1325.39 C 1485.29 1324.76 1489.27 1325.66 1495.87 1326.7 C 1488.05 1330.35 1482.76 1333.07 1475.31 1337.41 L 1467.57 1342.35 L 1463.63 1327.61 C 1468.55 1326.73 1473.66 1326.08 1478.62 1325.39 z" fill="rgb(254,253,253)" transform="translate(0,0)"></path>
<path d="M 1472.18 1359.6 C 1478.62 1360.31 1484.57 1366.42 1490.71 1370.69 C 1500.63 1368.48 1504.46 1376.3 1509.96 1383.44 L 1510.16 1384.67 L 1508.85 1385.37 C 1495.43 1378.97 1479.43 1373.21 1472.18 1359.6 z" fill="rgb(254,253,253)" transform="translate(0,0)"></path>
<path d="M 998.13 1371.9 C 1006.1 1373.37 1023.85 1382.48 1024.44 1390.49 L 1014.39 1392.6 L 998.13 1371.9 z" fill="rgb(254,253,253)" transform="translate(0,0)"></path>
<path d="M 916.776 1384.65 C 921.698 1387.91 938.276 1404.35 941.525 1409.25 L 937.51 1411.74 C 935.068 1409.26 911.762 1388.14 911.721 1387.95 L 916.776 1384.65 z" fill="rgb(254,253,253)" transform="translate(0,0)"></path>
<path d="M 1502.73 1367.45 L 1503.22 1367.63 C 1510.87 1370.33 1523.66 1380.29 1528.91 1386.63 L 1528.52 1388.04 C 1525.6 1389.52 1525.28 1389.9 1521.97 1390.36 C 1515.62 1387.92 1507.41 1373.88 1502.73 1367.45 z" fill="rgb(254,253,253)" transform="translate(0,0)"></path>
<path d="M 687.257 402.893 C 689.416 403.768 689.309 405.107 689.545 406.9 C 685.51 413.221 669.368 422.501 662.359 425.149 C 661.178 424.835 660.876 424.522 659.786 423.897 C 662.241 419.066 681.749 406.646 687.257 402.893 z" fill="rgb(254,253,253)" transform="translate(0,0)"></path>
<path d="M 1424.38 1394.11 C 1439.91 1395.65 1444.65 1400.78 1454.64 1412.57 L 1453.39 1412.7 C 1452.14 1412.83 1447.67 1413.29 1446.87 1412.77 C 1439.85 1408.23 1430.97 1399.55 1424.38 1394.11 z" fill="rgb(254,253,253)" transform="translate(0,0)"></path>
<path d="M 1362.82 1101.96 C 1364.73 1104.14 1364.51 1106.06 1364.46 1108.68 C 1361.57 1115.08 1350.44 1119.39 1343.48 1123.23 L 1342.59 1122.14 C 1344.71 1115.25 1356.92 1106.3 1362.82 1101.96 z" fill="rgb(254,253,253)" transform="translate(0,0)"></path>
<path d="M 940.778 1383.59 C 944.811 1386.17 955.145 1400.92 954.649 1405.88 L 953.038 1407.07 C 946.797 1401.64 940.712 1397.53 937.279 1390.18 C 937.31 1386.21 937.317 1387.46 940.778 1383.59 z" fill="rgb(254,253,253)" transform="translate(0,0)"></path>
<path d="M 1444.88 1388.81 C 1455.82 1392.23 1468.23 1397.84 1472.73 1409.44 C 1461.64 1411.83 1454.3 1396.83 1444.88 1388.81 z" fill="rgb(254,253,253)" transform="translate(0,0)"></path>
<path d="M 947.185 1370.53 C 952.079 1375.45 960.929 1385.48 962.84 1392.29 C 963.281 1393.86 962.569 1393.97 961.264 1395.73 C 956.717 1391.9 947.644 1381.84 945.355 1376.1 C 944.782 1374.67 946.343 1372.38 947.185 1370.53 z" fill="rgb(254,253,253)" transform="translate(0,0)"></path>
<path d="M 640.418 552.954 C 646.211 552.914 653.116 554.946 654.419 561.284 C 652.099 563.812 653.472 562.725 649.488 563.827 C 644.787 561.798 636.792 560.414 634.286 557.77 C 635.671 554.915 637.081 554.908 640.418 552.954 z" fill="rgb(254,253,253)" transform="translate(0,0)"></path>
<path d="M 1471.9 1382.07 C 1485.39 1384.41 1490.91 1390.19 1495.17 1402.87 C 1489.88 1402.84 1476.13 1386.79 1471.9 1382.07 z" fill="rgb(254,253,253)" transform="translate(0,0)"></path>
<path d="M 901.553 1390.97 C 909.136 1392.98 924.168 1406.27 926.536 1413.57 C 925.536 1413.77 922.317 1414.46 921.721 1413.97 C 916.992 1410.04 904.837 1395.41 901.553 1390.97 z" fill="rgb(254,253,253)" transform="translate(0,0)"></path>
<path d="M 1580.5 1342.73 C 1582.92 1345.91 1589.66 1362.58 1588.32 1366.38 L 1586.09 1366.76 C 1582.44 1360.6 1577.61 1354.05 1575.93 1347.47 C 1576.81 1344.11 1576.53 1345.19 1580.5 1342.73 z" fill="rgb(254,253,253)" transform="translate(0,0)"></path>
<path d="M 1462.86 1386.62 C 1471.69 1387.97 1482.31 1398.35 1486.16 1406.24 C 1474.6 1405.61 1469.45 1395.4 1462.86 1386.62 z" fill="rgb(254,253,253)" transform="translate(0,0)"></path>
<path d="M 1409.87 1398.18 C 1418.92 1397.74 1429.56 1406.68 1435.28 1413.16 C 1434.23 1413.21 1429.54 1413.36 1428.86 1413.19 C 1423.46 1411.83 1412.74 1402.63 1409.87 1398.18 z" fill="rgb(254,253,253)" transform="translate(0,0)"></path>
<path d="M 545.32 609.08 L 546.216 609.312 C 545.919 611.219 537.718 615.175 534.964 618.264 C 529.832 624.022 528.758 625.916 525.666 632.577 L 525.544 632.885 L 524.888 633.053 C 524.104 615.861 529.929 613.47 545.32 609.08 z" fill="rgb(254,253,253)" transform="translate(0,0)"></path>
<path d="M 1022.45 1362.95 C 1027.14 1363.29 1036.79 1369.98 1041.88 1370.51 C 1053.69 1371.74 1052.88 1365.12 1062.21 1375.28 L 1061.33 1376.44 C 1046.66 1375.76 1034.3 1371.31 1022.45 1362.95 z" fill="rgb(254,253,253)" transform="translate(0,0)"></path>
<path d="M 725.489 736.852 C 722.933 723.863 717.7 693.423 718.717 680.681 L 719.631 679.374 C 722.708 695.883 723.435 722.116 727.2 737.141 L 725.489 736.852 z" fill="rgb(254,253,253)" transform="translate(0,0)"></path>
<path d="M 1027.32 1374.45 C 1033.63 1377.2 1037.4 1378.11 1040.86 1384.09 L 1040.96 1386.7 C 1036.4 1389.93 1031.1 1384.69 1028.39 1381.38 C 1027.22 1379.97 1026.06 1378.56 1024.92 1377.13 L 1027.32 1374.45 z" fill="rgb(254,253,253)" transform="translate(0,0)"></path>
<path d="M 1569.77 1353.29 C 1574.15 1355.05 1580.31 1365.18 1580.57 1369.9 C 1568.44 1374.96 1570.32 1362.11 1569.77 1353.29 z" fill="rgb(254,253,253)" transform="translate(0,0)"></path>
<path d="M 1396.81 1399.6 C 1402.71 1399.76 1410.85 1405.58 1415.25 1409.3 L 1414.59 1410.31 C 1409.15 1409.11 1396.69 1407.76 1394.45 1402.75 L 1396.81 1399.6 z" fill="rgb(254,253,253)" transform="translate(0,0)"></path>
<path d="M 1221.07 855.182 C 1233 859.289 1244.43 861.353 1256.53 864.614 C 1257.03 865.335 1257.52 866.055 1258.01 866.776 C 1249.94 866.654 1225.37 861.913 1221.07 855.182 z" fill="rgb(254,253,253)" transform="translate(0,0)"></path>
<path d="M 1070.75 1349.69 C 1073.9 1352.48 1073.73 1362.32 1074.36 1367.16 C 1072.17 1364.65 1072.13 1361.23 1068.96 1357.31 L 1066.23 1358.77 L 1066.15 1362.02 L 1065.04 1362.71 L 1063.4 1360.2 L 1060.95 1361.05 L 1060.37 1360.36 C 1063.88 1355.97 1066.69 1353.47 1070.75 1349.69 z" fill="rgb(254,253,253)" transform="translate(0,0)"></path>
<path d="M 715.185 456.846 L 717.942 457.372 C 715.909 460.375 702.291 467.187 698.459 469.291 L 697.457 469.669 L 696.199 468.516 L 695.16 469.715 L 695.648 469.533 L 695.078 467.974 C 697.292 463.817 710.675 458.7 715.185 456.846 z" fill="rgb(254,253,253)" transform="translate(0,0)"></path>
<path d="M 1465.34 1365.46 C 1469.49 1366.7 1476.14 1372.25 1477.17 1376.44 C 1472.59 1375.35 1468.91 1374.51 1465.46 1371.43 C 1463.8 1367.59 1463.89 1369.51 1465.34 1365.46 z" fill="rgb(254,253,253)" transform="translate(0,0)"></path>
<path d="M 1495.03 1388.94 C 1500.27 1390.38 1504.46 1392.31 1509.03 1395.2 L 1509.34 1396.63 C 1506.72 1397.89 1505.94 1398.6 1503.07 1398.47 C 1499.2 1396.71 1497.45 1392.74 1495.03 1388.94 z" fill="rgb(254,253,253)" transform="translate(0,0)"></path>
<path d="M 621.975 558.03 L 621.718 558.377 C 617.903 548.972 609.613 538.386 615.23 529.151 L 616.598 529.742 C 612.402 539.319 619.66 549.921 624.059 558.696 L 621.975 558.03 z" fill="rgb(119,118,123)" transform="translate(0,0)"></path>
<path d="M 591.339 669.792 C 595.826 675.128 591.107 696.561 587.373 702.14 L 586.56 701.314 C 590.546 693.122 591.055 678.752 591.339 669.792 z" fill="rgb(119,118,123)" transform="translate(0,0)"></path>
<path d="M 1584.06 1341.89 C 1588.93 1341.47 1588.02 1341.39 1590.68 1343.57 C 1592.42 1347.46 1591.74 1351.23 1591.55 1355.61 C 1588.82 1351.79 1585.38 1346.34 1584.06 1341.89 z" fill="rgb(254,253,253)" transform="translate(0,0)"></path>
<path d="M 1595.99 1348.62 C 1599.11 1352.01 1601.39 1358.4 1603.16 1362.77 C 1599.82 1362.37 1599.11 1362.63 1596.53 1360.51 C 1594.9 1357.13 1595.73 1352.54 1595.99 1348.62 z" fill="rgb(254,253,253)" transform="translate(0,0)"></path>
<path d="M 1024.92 1377.13 C 1022.85 1375.34 1018.17 1372.03 1018.14 1369.49 C 1022.13 1370.14 1023.91 1371.99 1027.32 1374.45 L 1024.92 1377.13 z" fill="rgb(254,253,253)" transform="translate(0,0)"></path>
<path d="M 725.489 736.852 L 727.2 737.141 C 728.138 741.316 728.419 742.933 728.762 747.182 L 728.003 747.889 C 726.253 744.484 726.026 740.681 725.489 736.852 z" fill="rgb(83,83,87)" transform="translate(0,0)"></path>
<path d="M 1536.45 1438.15 C 1547.07 1437.46 1563.16 1437.97 1574.1 1437.98 L 1644.4 1438.08 C 1630.23 1458.13 1617.07 1478.89 1603.46 1499.35 C 1577.38 1538.91 1550.85 1578.19 1523.89 1617.17 C 1514.06 1631.34 1499.38 1656.8 1488.86 1668.12 L 414.5 1668.73 L 334.079 1668.68 C 374.284 1612.32 412.72 1554.51 452.676 1497.95 C 465.316 1480.06 477.869 1461.94 489.458 1443.35 L 709.871 1443.33 C 751.592 1443.4 793.525 1443.38 835.259 1443.83 C 850.918 1443.99 858.388 1451.05 873.113 1453.89 C 891.752 1457.48 912.777 1456.16 931.46 1456.94 C 957.79 1458.03 981.48 1445.35 1006.24 1445.09 C 1054.61 1444.6 1103.17 1444.49 1151.53 1444.44 L 1370.43 1444.66 C 1385.93 1454.94 1397.43 1455.76 1415.44 1457.59 C 1457.75 1461.89 1497.3 1454.29 1536.45 1438.15 z" fill="rgb(10,10,10)" transform="translate(0,0)"></path>
<path d="M 1176.18 1504.85 C 1205.49 1503.83 1244.67 1500.76 1267.22 1522.71 C 1289.88 1544.76 1289.54 1578.03 1268.17 1601.07 C 1241.57 1623.3 1210.23 1618.64 1176.6 1618.58 C 1176.81 1580.67 1176.67 1542.76 1176.18 1504.85 z" fill="rgb(254,253,253)" transform="translate(0,0)"></path>
<path d="M 1195.81 1520.01 C 1225.68 1519.8 1261.39 1519.58 1263.66 1560.3 C 1264.41 1573.68 1261.6 1582.47 1252.41 1592.41 C 1236.13 1606.1 1215.71 1604.08 1195.6 1604.01 L 1195.81 1520.01 z" fill="rgb(10,10,10)" transform="translate(0,0)"></path>
<path d="M 922.189 1504.44 C 927.114 1504.26 932.822 1504.59 937.808 1504.76 C 945.439 1516.93 952.499 1529.8 960.186 1541.97 C 968.345 1554.9 976.61 1567.16 984.175 1580.47 C 996.095 1557.54 1014.6 1527.27 1028.27 1504.86 L 1044.79 1504.69 L 1045.02 1618.49 L 1026.94 1618.45 L 1027.2 1570.25 L 1027.71 1537.63 C 1017.25 1551.99 998.094 1584.9 990.224 1600.7 L 978.312 1600.41 C 964.357 1580.1 952.521 1557.07 938.954 1537.8 C 940.807 1561.8 939.94 1593.73 939.953 1618.21 L 921.901 1618.28 C 922.075 1581.29 921.001 1541.04 922.189 1504.44 z" fill="rgb(254,253,253)" transform="translate(0,0)"></path>
<path d="M 630.988 1504.52 C 634.428 1506.08 682.671 1603.66 690.667 1618.9 L 670.139 1618.89 C 666.163 1609.88 661.293 1600.21 656.957 1591.29 L 621.5 1591.31 C 612 1591.3 602.5 1591.43 593.003 1591.7 C 588.506 1600.55 584.1 1609.44 579.787 1618.38 L 559.705 1618.23 C 575.85 1581.8 597.767 1541.63 615.327 1504.53 L 630.988 1504.52 z" fill="rgb(254,253,253)" transform="translate(0,0)"></path>
<path d="M 624.139 1524.73 C 632.981 1541.94 641.454 1559.34 649.554 1576.91 L 625.5 1576.94 L 599.1 1576.94 L 624.139 1524.73 z" fill="rgb(10,10,10)" transform="translate(0,0)"></path>
<path d="M 1403.24 1504.95 L 1419.97 1504.69 C 1428.51 1520.09 1438.79 1543.54 1446.74 1559.87 C 1454.54 1575.89 1468.75 1602.98 1473.94 1618.74 L 1455.07 1619.01 C 1451.42 1610.4 1447.69 1601.82 1443.86 1593.29 L 1423.5 1593.31 C 1409.74 1593.37 1395.99 1593.55 1382.23 1593.86 C 1378.48 1602.38 1375.39 1609.66 1372.15 1618.41 L 1351.58 1618.79 C 1368.95 1582.03 1386.21 1542.2 1403.24 1504.95 z" fill="rgb(254,253,253)" transform="translate(0,0)"></path>
<path d="M 1412.41 1524.72 C 1415.39 1528.19 1433.8 1573.22 1436.6 1579.87 L 1411.57 1579.88 L 1386.22 1579.95 C 1394.27 1562.25 1403.53 1541.85 1412.41 1524.72 z" fill="rgb(10,10,10)" transform="translate(0,0)"></path>
<path d="M 1075.36 1504.71 C 1098.63 1503.53 1131.96 1504.5 1155.96 1504.71 L 1155.96 1519.9 C 1136.07 1520.28 1115.03 1520.01 1095.07 1520.05 L 1095.02 1553.12 C 1112.93 1553.04 1130.84 1553.08 1148.74 1553.24 L 1148.79 1568 L 1096.17 1568.04 C 1093.65 1571.13 1094.61 1597.64 1094.61 1603.76 L 1157.05 1603.74 L 1156.99 1618.29 L 1075.24 1618.76 L 1075.36 1504.71 z" fill="rgb(254,253,253)" transform="translate(0,0)"></path>
<path d="M 806.282 1503.33 L 826.02 1504.03 C 814.003 1521.09 793.848 1543.67 779.852 1560.09 C 793.825 1574.57 816.61 1602.7 828.09 1619.02 L 805.918 1618.69 C 793.994 1603.09 780.394 1587.18 767.628 1572.23 C 755.735 1585.27 742.709 1603.02 731.812 1617.25 L 730.728 1618.34 C 726.489 1619.27 712.812 1618.86 707.776 1618.83 C 722.569 1599.68 740.854 1578.58 756.45 1559.86 C 742.648 1541.33 725.775 1522.83 712.794 1503.85 L 734.811 1505.02 C 746.534 1518.72 757.807 1533.57 769.671 1547.52 C 781.079 1532.77 794.298 1517.89 806.282 1503.33 z" fill="rgb(254,253,253)" transform="translate(0,0)"></path>
<path d="M 1311.59 1505.01 L 1330.1 1505.06 L 1330.72 1618.33 L 1311.55 1618.24 C 1311.3 1580.5 1311.31 1542.75 1311.59 1505.01 z" fill="rgb(254,253,253)" transform="translate(0,0)"></path>
<path d="M 883.806 858.668 C 891.1 864.924 934.041 934.533 941.729 947.147 C 909.965 985.597 868.051 1033.45 842.657 1075.81 C 826.005 1103.58 863.472 1154.68 874.201 1184.49 C 860.574 1204.83 846.358 1224.66 832.822 1244.92 C 844.74 1244.79 856.657 1244.58 868.572 1244.27 C 876.196 1234.41 881.818 1225.31 887.966 1214.58 C 898.93 1234.13 908.681 1255.06 919.346 1274.99 C 881.45 1275.08 843.553 1274.83 805.661 1274.25 C 782.95 1306.83 760.004 1339.25 736.824 1371.5 L 732.527 1376.94 L 533.949 1377.02 C 598.703 1284.02 662.366 1190.26 724.924 1095.77 C 777.413 1017.91 833.788 937.795 883.806 858.668 z" fill="rgb(10,10,10)" transform="translate(0,0)"></path>
<path d="M 1097.76 1288.97 C 1127.58 1288.3 1158.61 1288.68 1188.47 1288.71 C 1211.68 1327.14 1224.97 1352.31 1245.38 1392.78 C 1285.52 1393.71 1327.92 1393.13 1368.22 1393.18 C 1360.64 1405.82 1361.54 1416.15 1363.33 1429.86 L 1329.5 1429.6 C 1243.9 1429.04 1158.3 1429.11 1072.7 1429.82 C 1104.43 1421.63 1109.33 1408.18 1102.34 1377.51 C 1099.14 1363.48 1095.63 1349.67 1091.87 1335.72 C 1103.64 1317.64 1103.88 1308.96 1097.76 1288.97 z" fill="rgb(10,10,10)" transform="translate(0,0)"></path>
<path d="M 1054.21 1080.7 C 1057.68 1082.32 1096.78 1153.55 1103.77 1163.97 C 1127.25 1198.99 1148.3 1237.55 1171 1273.11 L 1132.25 1273.15 L 1087.89 1273.06 C 1079.76 1253.77 1076.08 1224.98 1065.94 1202.98 C 1050.84 1170.23 1030.45 1141.99 1012.85 1110.67 C 1027.83 1101.91 1041.01 1091.82 1054.21 1080.7 z" fill="rgb(10,10,10)" transform="translate(0,0)"></path>
<path d="M 987.998 774.785 C 991.343 778.287 999.372 821.82 998.422 826.618 C 993.435 851.801 982.232 850.08 991.479 878.691 C 982.933 897.401 981.457 902.288 968.581 918.699 C 960.461 907.528 949.533 889.065 941.824 876.943 C 930.684 859.78 908.209 827.679 901.613 809.776 C 898.693 807.905 898.741 807.949 896.44 805.356 L 897.077 804.119 C 903.726 802.918 917.534 817.101 934.847 813.699 C 959.257 808.903 974.022 793.483 987.998 774.785 z" fill="rgb(10,10,10)" transform="translate(0,0)"></path>
<path d="M 1764.25 1426.12 L 1842.57 1425.84 C 1838.44 1434.16 1830.8 1445.37 1825.66 1453.44 L 1795.07 1501.21 C 1756.37 1561.48 1714.76 1622.98 1677.09 1683.4 C 1651.93 1684.23 1623.82 1683.62 1598.43 1683.56 C 1607.28 1666.39 1629.81 1634.61 1641.28 1617.09 L 1721.55 1494.03 C 1732.87 1476.94 1756.17 1443.35 1764.25 1426.12 z" fill="rgb(254,253,253)" transform="translate(0,0)"></path>
<metadata><recraft-signature>{"signed_by": "recraft", "signature_b64": "2KwAjsPuQ2JmPSwnm/QwhKaZvNRdF5lMkXOiyqwnX+pn8MxTfGOAOxN6pwzp9SQPlHr3KoZG/1By2G7YGNgABg==", "signing_algo": "Ed25519", "generation_timestamp": 1774384698, "identifier": "cf81c9cd-516c-4bf6-90b4-acf2d6d5eab0"}</recraft-signature></metadata></svg>